%TF.GenerationSoftware,KiCad,Pcbnew,9.0.1*%
%TF.CreationDate,2025-04-22T18:06:14+02:00*%
%TF.ProjectId,electro-maticv,656c6563-7472-46f2-9d6d-61746963762e,rev?*%
%TF.SameCoordinates,Original*%
%TF.FileFunction,Legend,Top*%
%TF.FilePolarity,Positive*%
%FSLAX46Y46*%
G04 Gerber Fmt 4.6, Leading zero omitted, Abs format (unit mm)*
G04 Created by KiCad (PCBNEW 9.0.1) date 2025-04-22 18:06:14*
%MOMM*%
%LPD*%
G01*
G04 APERTURE LIST*
%ADD10C,0.150000*%
%ADD11C,0.120000*%
G04 APERTURE END LIST*
D10*
X98451905Y-123924819D02*
X98451905Y-122924819D01*
X98451905Y-122924819D02*
X98690000Y-122924819D01*
X98690000Y-122924819D02*
X98832857Y-122972438D01*
X98832857Y-122972438D02*
X98928095Y-123067676D01*
X98928095Y-123067676D02*
X98975714Y-123162914D01*
X98975714Y-123162914D02*
X99023333Y-123353390D01*
X99023333Y-123353390D02*
X99023333Y-123496247D01*
X99023333Y-123496247D02*
X98975714Y-123686723D01*
X98975714Y-123686723D02*
X98928095Y-123781961D01*
X98928095Y-123781961D02*
X98832857Y-123877200D01*
X98832857Y-123877200D02*
X98690000Y-123924819D01*
X98690000Y-123924819D02*
X98451905Y-123924819D01*
X99975714Y-123924819D02*
X99404286Y-123924819D01*
X99690000Y-123924819D02*
X99690000Y-122924819D01*
X99690000Y-122924819D02*
X99594762Y-123067676D01*
X99594762Y-123067676D02*
X99499524Y-123162914D01*
X99499524Y-123162914D02*
X99404286Y-123210533D01*
X102738095Y-123554819D02*
X102738095Y-122554819D01*
X103309523Y-123554819D02*
X102880952Y-122983390D01*
X103309523Y-122554819D02*
X102738095Y-123126247D01*
X108583333Y-137459580D02*
X108535714Y-137507200D01*
X108535714Y-137507200D02*
X108392857Y-137554819D01*
X108392857Y-137554819D02*
X108297619Y-137554819D01*
X108297619Y-137554819D02*
X108154762Y-137507200D01*
X108154762Y-137507200D02*
X108059524Y-137411961D01*
X108059524Y-137411961D02*
X108011905Y-137316723D01*
X108011905Y-137316723D02*
X107964286Y-137126247D01*
X107964286Y-137126247D02*
X107964286Y-136983390D01*
X107964286Y-136983390D02*
X108011905Y-136792914D01*
X108011905Y-136792914D02*
X108059524Y-136697676D01*
X108059524Y-136697676D02*
X108154762Y-136602438D01*
X108154762Y-136602438D02*
X108297619Y-136554819D01*
X108297619Y-136554819D02*
X108392857Y-136554819D01*
X108392857Y-136554819D02*
X108535714Y-136602438D01*
X108535714Y-136602438D02*
X108583333Y-136650057D01*
X109154762Y-136983390D02*
X109059524Y-136935771D01*
X109059524Y-136935771D02*
X109011905Y-136888152D01*
X109011905Y-136888152D02*
X108964286Y-136792914D01*
X108964286Y-136792914D02*
X108964286Y-136745295D01*
X108964286Y-136745295D02*
X109011905Y-136650057D01*
X109011905Y-136650057D02*
X109059524Y-136602438D01*
X109059524Y-136602438D02*
X109154762Y-136554819D01*
X109154762Y-136554819D02*
X109345238Y-136554819D01*
X109345238Y-136554819D02*
X109440476Y-136602438D01*
X109440476Y-136602438D02*
X109488095Y-136650057D01*
X109488095Y-136650057D02*
X109535714Y-136745295D01*
X109535714Y-136745295D02*
X109535714Y-136792914D01*
X109535714Y-136792914D02*
X109488095Y-136888152D01*
X109488095Y-136888152D02*
X109440476Y-136935771D01*
X109440476Y-136935771D02*
X109345238Y-136983390D01*
X109345238Y-136983390D02*
X109154762Y-136983390D01*
X109154762Y-136983390D02*
X109059524Y-137031009D01*
X109059524Y-137031009D02*
X109011905Y-137078628D01*
X109011905Y-137078628D02*
X108964286Y-137173866D01*
X108964286Y-137173866D02*
X108964286Y-137364342D01*
X108964286Y-137364342D02*
X109011905Y-137459580D01*
X109011905Y-137459580D02*
X109059524Y-137507200D01*
X109059524Y-137507200D02*
X109154762Y-137554819D01*
X109154762Y-137554819D02*
X109345238Y-137554819D01*
X109345238Y-137554819D02*
X109440476Y-137507200D01*
X109440476Y-137507200D02*
X109488095Y-137459580D01*
X109488095Y-137459580D02*
X109535714Y-137364342D01*
X109535714Y-137364342D02*
X109535714Y-137173866D01*
X109535714Y-137173866D02*
X109488095Y-137078628D01*
X109488095Y-137078628D02*
X109440476Y-137031009D01*
X109440476Y-137031009D02*
X109345238Y-136983390D01*
X113609580Y-129711554D02*
X113657200Y-129759173D01*
X113657200Y-129759173D02*
X113704819Y-129902030D01*
X113704819Y-129902030D02*
X113704819Y-129997268D01*
X113704819Y-129997268D02*
X113657200Y-130140125D01*
X113657200Y-130140125D02*
X113561961Y-130235363D01*
X113561961Y-130235363D02*
X113466723Y-130282982D01*
X113466723Y-130282982D02*
X113276247Y-130330601D01*
X113276247Y-130330601D02*
X113133390Y-130330601D01*
X113133390Y-130330601D02*
X112942914Y-130282982D01*
X112942914Y-130282982D02*
X112847676Y-130235363D01*
X112847676Y-130235363D02*
X112752438Y-130140125D01*
X112752438Y-130140125D02*
X112704819Y-129997268D01*
X112704819Y-129997268D02*
X112704819Y-129902030D01*
X112704819Y-129902030D02*
X112752438Y-129759173D01*
X112752438Y-129759173D02*
X112800057Y-129711554D01*
X112704819Y-129378220D02*
X112704819Y-128711554D01*
X112704819Y-128711554D02*
X113704819Y-129140125D01*
X101683333Y-131674819D02*
X101350000Y-131198628D01*
X101111905Y-131674819D02*
X101111905Y-130674819D01*
X101111905Y-130674819D02*
X101492857Y-130674819D01*
X101492857Y-130674819D02*
X101588095Y-130722438D01*
X101588095Y-130722438D02*
X101635714Y-130770057D01*
X101635714Y-130770057D02*
X101683333Y-130865295D01*
X101683333Y-130865295D02*
X101683333Y-131008152D01*
X101683333Y-131008152D02*
X101635714Y-131103390D01*
X101635714Y-131103390D02*
X101588095Y-131151009D01*
X101588095Y-131151009D02*
X101492857Y-131198628D01*
X101492857Y-131198628D02*
X101111905Y-131198628D01*
X102016667Y-130674819D02*
X102683333Y-130674819D01*
X102683333Y-130674819D02*
X102254762Y-131674819D01*
X103483333Y-133234819D02*
X103150000Y-132758628D01*
X102911905Y-133234819D02*
X102911905Y-132234819D01*
X102911905Y-132234819D02*
X103292857Y-132234819D01*
X103292857Y-132234819D02*
X103388095Y-132282438D01*
X103388095Y-132282438D02*
X103435714Y-132330057D01*
X103435714Y-132330057D02*
X103483333Y-132425295D01*
X103483333Y-132425295D02*
X103483333Y-132568152D01*
X103483333Y-132568152D02*
X103435714Y-132663390D01*
X103435714Y-132663390D02*
X103388095Y-132711009D01*
X103388095Y-132711009D02*
X103292857Y-132758628D01*
X103292857Y-132758628D02*
X102911905Y-132758628D01*
X104054762Y-132663390D02*
X103959524Y-132615771D01*
X103959524Y-132615771D02*
X103911905Y-132568152D01*
X103911905Y-132568152D02*
X103864286Y-132472914D01*
X103864286Y-132472914D02*
X103864286Y-132425295D01*
X103864286Y-132425295D02*
X103911905Y-132330057D01*
X103911905Y-132330057D02*
X103959524Y-132282438D01*
X103959524Y-132282438D02*
X104054762Y-132234819D01*
X104054762Y-132234819D02*
X104245238Y-132234819D01*
X104245238Y-132234819D02*
X104340476Y-132282438D01*
X104340476Y-132282438D02*
X104388095Y-132330057D01*
X104388095Y-132330057D02*
X104435714Y-132425295D01*
X104435714Y-132425295D02*
X104435714Y-132472914D01*
X104435714Y-132472914D02*
X104388095Y-132568152D01*
X104388095Y-132568152D02*
X104340476Y-132615771D01*
X104340476Y-132615771D02*
X104245238Y-132663390D01*
X104245238Y-132663390D02*
X104054762Y-132663390D01*
X104054762Y-132663390D02*
X103959524Y-132711009D01*
X103959524Y-132711009D02*
X103911905Y-132758628D01*
X103911905Y-132758628D02*
X103864286Y-132853866D01*
X103864286Y-132853866D02*
X103864286Y-133044342D01*
X103864286Y-133044342D02*
X103911905Y-133139580D01*
X103911905Y-133139580D02*
X103959524Y-133187200D01*
X103959524Y-133187200D02*
X104054762Y-133234819D01*
X104054762Y-133234819D02*
X104245238Y-133234819D01*
X104245238Y-133234819D02*
X104340476Y-133187200D01*
X104340476Y-133187200D02*
X104388095Y-133139580D01*
X104388095Y-133139580D02*
X104435714Y-133044342D01*
X104435714Y-133044342D02*
X104435714Y-132853866D01*
X104435714Y-132853866D02*
X104388095Y-132758628D01*
X104388095Y-132758628D02*
X104340476Y-132711009D01*
X104340476Y-132711009D02*
X104245238Y-132663390D01*
X99666666Y-139034819D02*
X99666666Y-139749104D01*
X99666666Y-139749104D02*
X99619047Y-139891961D01*
X99619047Y-139891961D02*
X99523809Y-139987200D01*
X99523809Y-139987200D02*
X99380952Y-140034819D01*
X99380952Y-140034819D02*
X99285714Y-140034819D01*
X100571428Y-139368152D02*
X100571428Y-140034819D01*
X100333333Y-138987200D02*
X100095238Y-139701485D01*
X100095238Y-139701485D02*
X100714285Y-139701485D01*
X72083333Y-140609580D02*
X72035714Y-140657200D01*
X72035714Y-140657200D02*
X71892857Y-140704819D01*
X71892857Y-140704819D02*
X71797619Y-140704819D01*
X71797619Y-140704819D02*
X71654762Y-140657200D01*
X71654762Y-140657200D02*
X71559524Y-140561961D01*
X71559524Y-140561961D02*
X71511905Y-140466723D01*
X71511905Y-140466723D02*
X71464286Y-140276247D01*
X71464286Y-140276247D02*
X71464286Y-140133390D01*
X71464286Y-140133390D02*
X71511905Y-139942914D01*
X71511905Y-139942914D02*
X71559524Y-139847676D01*
X71559524Y-139847676D02*
X71654762Y-139752438D01*
X71654762Y-139752438D02*
X71797619Y-139704819D01*
X71797619Y-139704819D02*
X71892857Y-139704819D01*
X71892857Y-139704819D02*
X72035714Y-139752438D01*
X72035714Y-139752438D02*
X72083333Y-139800057D01*
X72416667Y-139704819D02*
X73035714Y-139704819D01*
X73035714Y-139704819D02*
X72702381Y-140085771D01*
X72702381Y-140085771D02*
X72845238Y-140085771D01*
X72845238Y-140085771D02*
X72940476Y-140133390D01*
X72940476Y-140133390D02*
X72988095Y-140181009D01*
X72988095Y-140181009D02*
X73035714Y-140276247D01*
X73035714Y-140276247D02*
X73035714Y-140514342D01*
X73035714Y-140514342D02*
X72988095Y-140609580D01*
X72988095Y-140609580D02*
X72940476Y-140657200D01*
X72940476Y-140657200D02*
X72845238Y-140704819D01*
X72845238Y-140704819D02*
X72559524Y-140704819D01*
X72559524Y-140704819D02*
X72464286Y-140657200D01*
X72464286Y-140657200D02*
X72416667Y-140609580D01*
X69583333Y-144609580D02*
X69535714Y-144657200D01*
X69535714Y-144657200D02*
X69392857Y-144704819D01*
X69392857Y-144704819D02*
X69297619Y-144704819D01*
X69297619Y-144704819D02*
X69154762Y-144657200D01*
X69154762Y-144657200D02*
X69059524Y-144561961D01*
X69059524Y-144561961D02*
X69011905Y-144466723D01*
X69011905Y-144466723D02*
X68964286Y-144276247D01*
X68964286Y-144276247D02*
X68964286Y-144133390D01*
X68964286Y-144133390D02*
X69011905Y-143942914D01*
X69011905Y-143942914D02*
X69059524Y-143847676D01*
X69059524Y-143847676D02*
X69154762Y-143752438D01*
X69154762Y-143752438D02*
X69297619Y-143704819D01*
X69297619Y-143704819D02*
X69392857Y-143704819D01*
X69392857Y-143704819D02*
X69535714Y-143752438D01*
X69535714Y-143752438D02*
X69583333Y-143800057D01*
X69964286Y-143800057D02*
X70011905Y-143752438D01*
X70011905Y-143752438D02*
X70107143Y-143704819D01*
X70107143Y-143704819D02*
X70345238Y-143704819D01*
X70345238Y-143704819D02*
X70440476Y-143752438D01*
X70440476Y-143752438D02*
X70488095Y-143800057D01*
X70488095Y-143800057D02*
X70535714Y-143895295D01*
X70535714Y-143895295D02*
X70535714Y-143990533D01*
X70535714Y-143990533D02*
X70488095Y-144133390D01*
X70488095Y-144133390D02*
X69916667Y-144704819D01*
X69916667Y-144704819D02*
X70535714Y-144704819D01*
X77103333Y-145174819D02*
X76770000Y-144698628D01*
X76531905Y-145174819D02*
X76531905Y-144174819D01*
X76531905Y-144174819D02*
X76912857Y-144174819D01*
X76912857Y-144174819D02*
X77008095Y-144222438D01*
X77008095Y-144222438D02*
X77055714Y-144270057D01*
X77055714Y-144270057D02*
X77103333Y-144365295D01*
X77103333Y-144365295D02*
X77103333Y-144508152D01*
X77103333Y-144508152D02*
X77055714Y-144603390D01*
X77055714Y-144603390D02*
X77008095Y-144651009D01*
X77008095Y-144651009D02*
X76912857Y-144698628D01*
X76912857Y-144698628D02*
X76531905Y-144698628D01*
X77960476Y-144508152D02*
X77960476Y-145174819D01*
X77722381Y-144127200D02*
X77484286Y-144841485D01*
X77484286Y-144841485D02*
X78103333Y-144841485D01*
X69563333Y-150174819D02*
X69230000Y-149698628D01*
X68991905Y-150174819D02*
X68991905Y-149174819D01*
X68991905Y-149174819D02*
X69372857Y-149174819D01*
X69372857Y-149174819D02*
X69468095Y-149222438D01*
X69468095Y-149222438D02*
X69515714Y-149270057D01*
X69515714Y-149270057D02*
X69563333Y-149365295D01*
X69563333Y-149365295D02*
X69563333Y-149508152D01*
X69563333Y-149508152D02*
X69515714Y-149603390D01*
X69515714Y-149603390D02*
X69468095Y-149651009D01*
X69468095Y-149651009D02*
X69372857Y-149698628D01*
X69372857Y-149698628D02*
X68991905Y-149698628D01*
X69896667Y-149174819D02*
X70515714Y-149174819D01*
X70515714Y-149174819D02*
X70182381Y-149555771D01*
X70182381Y-149555771D02*
X70325238Y-149555771D01*
X70325238Y-149555771D02*
X70420476Y-149603390D01*
X70420476Y-149603390D02*
X70468095Y-149651009D01*
X70468095Y-149651009D02*
X70515714Y-149746247D01*
X70515714Y-149746247D02*
X70515714Y-149984342D01*
X70515714Y-149984342D02*
X70468095Y-150079580D01*
X70468095Y-150079580D02*
X70420476Y-150127200D01*
X70420476Y-150127200D02*
X70325238Y-150174819D01*
X70325238Y-150174819D02*
X70039524Y-150174819D01*
X70039524Y-150174819D02*
X69944286Y-150127200D01*
X69944286Y-150127200D02*
X69896667Y-150079580D01*
X68817142Y-111234819D02*
X68483809Y-110758628D01*
X68245714Y-111234819D02*
X68245714Y-110234819D01*
X68245714Y-110234819D02*
X68626666Y-110234819D01*
X68626666Y-110234819D02*
X68721904Y-110282438D01*
X68721904Y-110282438D02*
X68769523Y-110330057D01*
X68769523Y-110330057D02*
X68817142Y-110425295D01*
X68817142Y-110425295D02*
X68817142Y-110568152D01*
X68817142Y-110568152D02*
X68769523Y-110663390D01*
X68769523Y-110663390D02*
X68721904Y-110711009D01*
X68721904Y-110711009D02*
X68626666Y-110758628D01*
X68626666Y-110758628D02*
X68245714Y-110758628D01*
X69769523Y-111234819D02*
X69198095Y-111234819D01*
X69483809Y-111234819D02*
X69483809Y-110234819D01*
X69483809Y-110234819D02*
X69388571Y-110377676D01*
X69388571Y-110377676D02*
X69293333Y-110472914D01*
X69293333Y-110472914D02*
X69198095Y-110520533D01*
X70674285Y-110234819D02*
X70198095Y-110234819D01*
X70198095Y-110234819D02*
X70150476Y-110711009D01*
X70150476Y-110711009D02*
X70198095Y-110663390D01*
X70198095Y-110663390D02*
X70293333Y-110615771D01*
X70293333Y-110615771D02*
X70531428Y-110615771D01*
X70531428Y-110615771D02*
X70626666Y-110663390D01*
X70626666Y-110663390D02*
X70674285Y-110711009D01*
X70674285Y-110711009D02*
X70721904Y-110806247D01*
X70721904Y-110806247D02*
X70721904Y-111044342D01*
X70721904Y-111044342D02*
X70674285Y-111139580D01*
X70674285Y-111139580D02*
X70626666Y-111187200D01*
X70626666Y-111187200D02*
X70531428Y-111234819D01*
X70531428Y-111234819D02*
X70293333Y-111234819D01*
X70293333Y-111234819D02*
X70198095Y-111187200D01*
X70198095Y-111187200D02*
X70150476Y-111139580D01*
X58734819Y-123412857D02*
X58258628Y-123746190D01*
X58734819Y-123984285D02*
X57734819Y-123984285D01*
X57734819Y-123984285D02*
X57734819Y-123603333D01*
X57734819Y-123603333D02*
X57782438Y-123508095D01*
X57782438Y-123508095D02*
X57830057Y-123460476D01*
X57830057Y-123460476D02*
X57925295Y-123412857D01*
X57925295Y-123412857D02*
X58068152Y-123412857D01*
X58068152Y-123412857D02*
X58163390Y-123460476D01*
X58163390Y-123460476D02*
X58211009Y-123508095D01*
X58211009Y-123508095D02*
X58258628Y-123603333D01*
X58258628Y-123603333D02*
X58258628Y-123984285D01*
X58734819Y-122460476D02*
X58734819Y-123031904D01*
X58734819Y-122746190D02*
X57734819Y-122746190D01*
X57734819Y-122746190D02*
X57877676Y-122841428D01*
X57877676Y-122841428D02*
X57972914Y-122936666D01*
X57972914Y-122936666D02*
X58020533Y-123031904D01*
X58068152Y-121603333D02*
X58734819Y-121603333D01*
X57687200Y-121841428D02*
X58401485Y-122079523D01*
X58401485Y-122079523D02*
X58401485Y-121460476D01*
X61087142Y-150174819D02*
X60753809Y-149698628D01*
X60515714Y-150174819D02*
X60515714Y-149174819D01*
X60515714Y-149174819D02*
X60896666Y-149174819D01*
X60896666Y-149174819D02*
X60991904Y-149222438D01*
X60991904Y-149222438D02*
X61039523Y-149270057D01*
X61039523Y-149270057D02*
X61087142Y-149365295D01*
X61087142Y-149365295D02*
X61087142Y-149508152D01*
X61087142Y-149508152D02*
X61039523Y-149603390D01*
X61039523Y-149603390D02*
X60991904Y-149651009D01*
X60991904Y-149651009D02*
X60896666Y-149698628D01*
X60896666Y-149698628D02*
X60515714Y-149698628D01*
X62039523Y-150174819D02*
X61468095Y-150174819D01*
X61753809Y-150174819D02*
X61753809Y-149174819D01*
X61753809Y-149174819D02*
X61658571Y-149317676D01*
X61658571Y-149317676D02*
X61563333Y-149412914D01*
X61563333Y-149412914D02*
X61468095Y-149460533D01*
X62372857Y-149174819D02*
X62991904Y-149174819D01*
X62991904Y-149174819D02*
X62658571Y-149555771D01*
X62658571Y-149555771D02*
X62801428Y-149555771D01*
X62801428Y-149555771D02*
X62896666Y-149603390D01*
X62896666Y-149603390D02*
X62944285Y-149651009D01*
X62944285Y-149651009D02*
X62991904Y-149746247D01*
X62991904Y-149746247D02*
X62991904Y-149984342D01*
X62991904Y-149984342D02*
X62944285Y-150079580D01*
X62944285Y-150079580D02*
X62896666Y-150127200D01*
X62896666Y-150127200D02*
X62801428Y-150174819D01*
X62801428Y-150174819D02*
X62515714Y-150174819D01*
X62515714Y-150174819D02*
X62420476Y-150127200D01*
X62420476Y-150127200D02*
X62372857Y-150079580D01*
X76087142Y-99734819D02*
X75753809Y-99258628D01*
X75515714Y-99734819D02*
X75515714Y-98734819D01*
X75515714Y-98734819D02*
X75896666Y-98734819D01*
X75896666Y-98734819D02*
X75991904Y-98782438D01*
X75991904Y-98782438D02*
X76039523Y-98830057D01*
X76039523Y-98830057D02*
X76087142Y-98925295D01*
X76087142Y-98925295D02*
X76087142Y-99068152D01*
X76087142Y-99068152D02*
X76039523Y-99163390D01*
X76039523Y-99163390D02*
X75991904Y-99211009D01*
X75991904Y-99211009D02*
X75896666Y-99258628D01*
X75896666Y-99258628D02*
X75515714Y-99258628D01*
X77039523Y-99734819D02*
X76468095Y-99734819D01*
X76753809Y-99734819D02*
X76753809Y-98734819D01*
X76753809Y-98734819D02*
X76658571Y-98877676D01*
X76658571Y-98877676D02*
X76563333Y-98972914D01*
X76563333Y-98972914D02*
X76468095Y-99020533D01*
X77420476Y-98830057D02*
X77468095Y-98782438D01*
X77468095Y-98782438D02*
X77563333Y-98734819D01*
X77563333Y-98734819D02*
X77801428Y-98734819D01*
X77801428Y-98734819D02*
X77896666Y-98782438D01*
X77896666Y-98782438D02*
X77944285Y-98830057D01*
X77944285Y-98830057D02*
X77991904Y-98925295D01*
X77991904Y-98925295D02*
X77991904Y-99020533D01*
X77991904Y-99020533D02*
X77944285Y-99163390D01*
X77944285Y-99163390D02*
X77372857Y-99734819D01*
X77372857Y-99734819D02*
X77991904Y-99734819D01*
X88603333Y-122674819D02*
X88270000Y-122198628D01*
X88031905Y-122674819D02*
X88031905Y-121674819D01*
X88031905Y-121674819D02*
X88412857Y-121674819D01*
X88412857Y-121674819D02*
X88508095Y-121722438D01*
X88508095Y-121722438D02*
X88555714Y-121770057D01*
X88555714Y-121770057D02*
X88603333Y-121865295D01*
X88603333Y-121865295D02*
X88603333Y-122008152D01*
X88603333Y-122008152D02*
X88555714Y-122103390D01*
X88555714Y-122103390D02*
X88508095Y-122151009D01*
X88508095Y-122151009D02*
X88412857Y-122198628D01*
X88412857Y-122198628D02*
X88031905Y-122198628D01*
X89079524Y-122674819D02*
X89270000Y-122674819D01*
X89270000Y-122674819D02*
X89365238Y-122627200D01*
X89365238Y-122627200D02*
X89412857Y-122579580D01*
X89412857Y-122579580D02*
X89508095Y-122436723D01*
X89508095Y-122436723D02*
X89555714Y-122246247D01*
X89555714Y-122246247D02*
X89555714Y-121865295D01*
X89555714Y-121865295D02*
X89508095Y-121770057D01*
X89508095Y-121770057D02*
X89460476Y-121722438D01*
X89460476Y-121722438D02*
X89365238Y-121674819D01*
X89365238Y-121674819D02*
X89174762Y-121674819D01*
X89174762Y-121674819D02*
X89079524Y-121722438D01*
X89079524Y-121722438D02*
X89031905Y-121770057D01*
X89031905Y-121770057D02*
X88984286Y-121865295D01*
X88984286Y-121865295D02*
X88984286Y-122103390D01*
X88984286Y-122103390D02*
X89031905Y-122198628D01*
X89031905Y-122198628D02*
X89079524Y-122246247D01*
X89079524Y-122246247D02*
X89174762Y-122293866D01*
X89174762Y-122293866D02*
X89365238Y-122293866D01*
X89365238Y-122293866D02*
X89460476Y-122246247D01*
X89460476Y-122246247D02*
X89508095Y-122198628D01*
X89508095Y-122198628D02*
X89555714Y-122103390D01*
X76103333Y-117174819D02*
X75770000Y-116698628D01*
X75531905Y-117174819D02*
X75531905Y-116174819D01*
X75531905Y-116174819D02*
X75912857Y-116174819D01*
X75912857Y-116174819D02*
X76008095Y-116222438D01*
X76008095Y-116222438D02*
X76055714Y-116270057D01*
X76055714Y-116270057D02*
X76103333Y-116365295D01*
X76103333Y-116365295D02*
X76103333Y-116508152D01*
X76103333Y-116508152D02*
X76055714Y-116603390D01*
X76055714Y-116603390D02*
X76008095Y-116651009D01*
X76008095Y-116651009D02*
X75912857Y-116698628D01*
X75912857Y-116698628D02*
X75531905Y-116698628D01*
X76960476Y-116174819D02*
X76770000Y-116174819D01*
X76770000Y-116174819D02*
X76674762Y-116222438D01*
X76674762Y-116222438D02*
X76627143Y-116270057D01*
X76627143Y-116270057D02*
X76531905Y-116412914D01*
X76531905Y-116412914D02*
X76484286Y-116603390D01*
X76484286Y-116603390D02*
X76484286Y-116984342D01*
X76484286Y-116984342D02*
X76531905Y-117079580D01*
X76531905Y-117079580D02*
X76579524Y-117127200D01*
X76579524Y-117127200D02*
X76674762Y-117174819D01*
X76674762Y-117174819D02*
X76865238Y-117174819D01*
X76865238Y-117174819D02*
X76960476Y-117127200D01*
X76960476Y-117127200D02*
X77008095Y-117079580D01*
X77008095Y-117079580D02*
X77055714Y-116984342D01*
X77055714Y-116984342D02*
X77055714Y-116746247D01*
X77055714Y-116746247D02*
X77008095Y-116651009D01*
X77008095Y-116651009D02*
X76960476Y-116603390D01*
X76960476Y-116603390D02*
X76865238Y-116555771D01*
X76865238Y-116555771D02*
X76674762Y-116555771D01*
X76674762Y-116555771D02*
X76579524Y-116603390D01*
X76579524Y-116603390D02*
X76531905Y-116651009D01*
X76531905Y-116651009D02*
X76484286Y-116746247D01*
X84603333Y-145174819D02*
X84270000Y-144698628D01*
X84031905Y-145174819D02*
X84031905Y-144174819D01*
X84031905Y-144174819D02*
X84412857Y-144174819D01*
X84412857Y-144174819D02*
X84508095Y-144222438D01*
X84508095Y-144222438D02*
X84555714Y-144270057D01*
X84555714Y-144270057D02*
X84603333Y-144365295D01*
X84603333Y-144365295D02*
X84603333Y-144508152D01*
X84603333Y-144508152D02*
X84555714Y-144603390D01*
X84555714Y-144603390D02*
X84508095Y-144651009D01*
X84508095Y-144651009D02*
X84412857Y-144698628D01*
X84412857Y-144698628D02*
X84031905Y-144698628D01*
X85508095Y-144174819D02*
X85031905Y-144174819D01*
X85031905Y-144174819D02*
X84984286Y-144651009D01*
X84984286Y-144651009D02*
X85031905Y-144603390D01*
X85031905Y-144603390D02*
X85127143Y-144555771D01*
X85127143Y-144555771D02*
X85365238Y-144555771D01*
X85365238Y-144555771D02*
X85460476Y-144603390D01*
X85460476Y-144603390D02*
X85508095Y-144651009D01*
X85508095Y-144651009D02*
X85555714Y-144746247D01*
X85555714Y-144746247D02*
X85555714Y-144984342D01*
X85555714Y-144984342D02*
X85508095Y-145079580D01*
X85508095Y-145079580D02*
X85460476Y-145127200D01*
X85460476Y-145127200D02*
X85365238Y-145174819D01*
X85365238Y-145174819D02*
X85127143Y-145174819D01*
X85127143Y-145174819D02*
X85031905Y-145127200D01*
X85031905Y-145127200D02*
X84984286Y-145079580D01*
X69563333Y-131734819D02*
X69230000Y-131258628D01*
X68991905Y-131734819D02*
X68991905Y-130734819D01*
X68991905Y-130734819D02*
X69372857Y-130734819D01*
X69372857Y-130734819D02*
X69468095Y-130782438D01*
X69468095Y-130782438D02*
X69515714Y-130830057D01*
X69515714Y-130830057D02*
X69563333Y-130925295D01*
X69563333Y-130925295D02*
X69563333Y-131068152D01*
X69563333Y-131068152D02*
X69515714Y-131163390D01*
X69515714Y-131163390D02*
X69468095Y-131211009D01*
X69468095Y-131211009D02*
X69372857Y-131258628D01*
X69372857Y-131258628D02*
X68991905Y-131258628D01*
X69944286Y-130830057D02*
X69991905Y-130782438D01*
X69991905Y-130782438D02*
X70087143Y-130734819D01*
X70087143Y-130734819D02*
X70325238Y-130734819D01*
X70325238Y-130734819D02*
X70420476Y-130782438D01*
X70420476Y-130782438D02*
X70468095Y-130830057D01*
X70468095Y-130830057D02*
X70515714Y-130925295D01*
X70515714Y-130925295D02*
X70515714Y-131020533D01*
X70515714Y-131020533D02*
X70468095Y-131163390D01*
X70468095Y-131163390D02*
X69896667Y-131734819D01*
X69896667Y-131734819D02*
X70515714Y-131734819D01*
X77063333Y-137174819D02*
X76730000Y-136698628D01*
X76491905Y-137174819D02*
X76491905Y-136174819D01*
X76491905Y-136174819D02*
X76872857Y-136174819D01*
X76872857Y-136174819D02*
X76968095Y-136222438D01*
X76968095Y-136222438D02*
X77015714Y-136270057D01*
X77015714Y-136270057D02*
X77063333Y-136365295D01*
X77063333Y-136365295D02*
X77063333Y-136508152D01*
X77063333Y-136508152D02*
X77015714Y-136603390D01*
X77015714Y-136603390D02*
X76968095Y-136651009D01*
X76968095Y-136651009D02*
X76872857Y-136698628D01*
X76872857Y-136698628D02*
X76491905Y-136698628D01*
X78015714Y-137174819D02*
X77444286Y-137174819D01*
X77730000Y-137174819D02*
X77730000Y-136174819D01*
X77730000Y-136174819D02*
X77634762Y-136317676D01*
X77634762Y-136317676D02*
X77539524Y-136412914D01*
X77539524Y-136412914D02*
X77444286Y-136460533D01*
X62374819Y-98142857D02*
X61898628Y-98476190D01*
X62374819Y-98714285D02*
X61374819Y-98714285D01*
X61374819Y-98714285D02*
X61374819Y-98333333D01*
X61374819Y-98333333D02*
X61422438Y-98238095D01*
X61422438Y-98238095D02*
X61470057Y-98190476D01*
X61470057Y-98190476D02*
X61565295Y-98142857D01*
X61565295Y-98142857D02*
X61708152Y-98142857D01*
X61708152Y-98142857D02*
X61803390Y-98190476D01*
X61803390Y-98190476D02*
X61851009Y-98238095D01*
X61851009Y-98238095D02*
X61898628Y-98333333D01*
X61898628Y-98333333D02*
X61898628Y-98714285D01*
X62374819Y-97190476D02*
X62374819Y-97761904D01*
X62374819Y-97476190D02*
X61374819Y-97476190D01*
X61374819Y-97476190D02*
X61517676Y-97571428D01*
X61517676Y-97571428D02*
X61612914Y-97666666D01*
X61612914Y-97666666D02*
X61660533Y-97761904D01*
X61374819Y-96333333D02*
X61374819Y-96523809D01*
X61374819Y-96523809D02*
X61422438Y-96619047D01*
X61422438Y-96619047D02*
X61470057Y-96666666D01*
X61470057Y-96666666D02*
X61612914Y-96761904D01*
X61612914Y-96761904D02*
X61803390Y-96809523D01*
X61803390Y-96809523D02*
X62184342Y-96809523D01*
X62184342Y-96809523D02*
X62279580Y-96761904D01*
X62279580Y-96761904D02*
X62327200Y-96714285D01*
X62327200Y-96714285D02*
X62374819Y-96619047D01*
X62374819Y-96619047D02*
X62374819Y-96428571D01*
X62374819Y-96428571D02*
X62327200Y-96333333D01*
X62327200Y-96333333D02*
X62279580Y-96285714D01*
X62279580Y-96285714D02*
X62184342Y-96238095D01*
X62184342Y-96238095D02*
X61946247Y-96238095D01*
X61946247Y-96238095D02*
X61851009Y-96285714D01*
X61851009Y-96285714D02*
X61803390Y-96333333D01*
X61803390Y-96333333D02*
X61755771Y-96428571D01*
X61755771Y-96428571D02*
X61755771Y-96619047D01*
X61755771Y-96619047D02*
X61803390Y-96714285D01*
X61803390Y-96714285D02*
X61851009Y-96761904D01*
X61851009Y-96761904D02*
X61946247Y-96809523D01*
X85324819Y-124451904D02*
X86134342Y-124451904D01*
X86134342Y-124451904D02*
X86229580Y-124404285D01*
X86229580Y-124404285D02*
X86277200Y-124356666D01*
X86277200Y-124356666D02*
X86324819Y-124261428D01*
X86324819Y-124261428D02*
X86324819Y-124070952D01*
X86324819Y-124070952D02*
X86277200Y-123975714D01*
X86277200Y-123975714D02*
X86229580Y-123928095D01*
X86229580Y-123928095D02*
X86134342Y-123880476D01*
X86134342Y-123880476D02*
X85324819Y-123880476D01*
X86324819Y-122880476D02*
X86324819Y-123451904D01*
X86324819Y-123166190D02*
X85324819Y-123166190D01*
X85324819Y-123166190D02*
X85467676Y-123261428D01*
X85467676Y-123261428D02*
X85562914Y-123356666D01*
X85562914Y-123356666D02*
X85610533Y-123451904D01*
X63507200Y-110083332D02*
X63554819Y-109940475D01*
X63554819Y-109940475D02*
X63554819Y-109702380D01*
X63554819Y-109702380D02*
X63507200Y-109607142D01*
X63507200Y-109607142D02*
X63459580Y-109559523D01*
X63459580Y-109559523D02*
X63364342Y-109511904D01*
X63364342Y-109511904D02*
X63269104Y-109511904D01*
X63269104Y-109511904D02*
X63173866Y-109559523D01*
X63173866Y-109559523D02*
X63126247Y-109607142D01*
X63126247Y-109607142D02*
X63078628Y-109702380D01*
X63078628Y-109702380D02*
X63031009Y-109892856D01*
X63031009Y-109892856D02*
X62983390Y-109988094D01*
X62983390Y-109988094D02*
X62935771Y-110035713D01*
X62935771Y-110035713D02*
X62840533Y-110083332D01*
X62840533Y-110083332D02*
X62745295Y-110083332D01*
X62745295Y-110083332D02*
X62650057Y-110035713D01*
X62650057Y-110035713D02*
X62602438Y-109988094D01*
X62602438Y-109988094D02*
X62554819Y-109892856D01*
X62554819Y-109892856D02*
X62554819Y-109654761D01*
X62554819Y-109654761D02*
X62602438Y-109511904D01*
X62554819Y-109178570D02*
X63554819Y-108940475D01*
X63554819Y-108940475D02*
X62840533Y-108749999D01*
X62840533Y-108749999D02*
X63554819Y-108559523D01*
X63554819Y-108559523D02*
X62554819Y-108321428D01*
X63554819Y-107416666D02*
X63554819Y-107988094D01*
X63554819Y-107702380D02*
X62554819Y-107702380D01*
X62554819Y-107702380D02*
X62697676Y-107797618D01*
X62697676Y-107797618D02*
X62792914Y-107892856D01*
X62792914Y-107892856D02*
X62840533Y-107988094D01*
X103834819Y-102642857D02*
X103358628Y-102976190D01*
X103834819Y-103214285D02*
X102834819Y-103214285D01*
X102834819Y-103214285D02*
X102834819Y-102833333D01*
X102834819Y-102833333D02*
X102882438Y-102738095D01*
X102882438Y-102738095D02*
X102930057Y-102690476D01*
X102930057Y-102690476D02*
X103025295Y-102642857D01*
X103025295Y-102642857D02*
X103168152Y-102642857D01*
X103168152Y-102642857D02*
X103263390Y-102690476D01*
X103263390Y-102690476D02*
X103311009Y-102738095D01*
X103311009Y-102738095D02*
X103358628Y-102833333D01*
X103358628Y-102833333D02*
X103358628Y-103214285D01*
X103834819Y-101690476D02*
X103834819Y-102261904D01*
X103834819Y-101976190D02*
X102834819Y-101976190D01*
X102834819Y-101976190D02*
X102977676Y-102071428D01*
X102977676Y-102071428D02*
X103072914Y-102166666D01*
X103072914Y-102166666D02*
X103120533Y-102261904D01*
X103834819Y-100738095D02*
X103834819Y-101309523D01*
X103834819Y-101023809D02*
X102834819Y-101023809D01*
X102834819Y-101023809D02*
X102977676Y-101119047D01*
X102977676Y-101119047D02*
X103072914Y-101214285D01*
X103072914Y-101214285D02*
X103120533Y-101309523D01*
X52857142Y-128074819D02*
X52523809Y-127598628D01*
X52285714Y-128074819D02*
X52285714Y-127074819D01*
X52285714Y-127074819D02*
X52666666Y-127074819D01*
X52666666Y-127074819D02*
X52761904Y-127122438D01*
X52761904Y-127122438D02*
X52809523Y-127170057D01*
X52809523Y-127170057D02*
X52857142Y-127265295D01*
X52857142Y-127265295D02*
X52857142Y-127408152D01*
X52857142Y-127408152D02*
X52809523Y-127503390D01*
X52809523Y-127503390D02*
X52761904Y-127551009D01*
X52761904Y-127551009D02*
X52666666Y-127598628D01*
X52666666Y-127598628D02*
X52285714Y-127598628D01*
X53809523Y-128074819D02*
X53238095Y-128074819D01*
X53523809Y-128074819D02*
X53523809Y-127074819D01*
X53523809Y-127074819D02*
X53428571Y-127217676D01*
X53428571Y-127217676D02*
X53333333Y-127312914D01*
X53333333Y-127312914D02*
X53238095Y-127360533D01*
X54428571Y-127074819D02*
X54523809Y-127074819D01*
X54523809Y-127074819D02*
X54619047Y-127122438D01*
X54619047Y-127122438D02*
X54666666Y-127170057D01*
X54666666Y-127170057D02*
X54714285Y-127265295D01*
X54714285Y-127265295D02*
X54761904Y-127455771D01*
X54761904Y-127455771D02*
X54761904Y-127693866D01*
X54761904Y-127693866D02*
X54714285Y-127884342D01*
X54714285Y-127884342D02*
X54666666Y-127979580D01*
X54666666Y-127979580D02*
X54619047Y-128027200D01*
X54619047Y-128027200D02*
X54523809Y-128074819D01*
X54523809Y-128074819D02*
X54428571Y-128074819D01*
X54428571Y-128074819D02*
X54333333Y-128027200D01*
X54333333Y-128027200D02*
X54285714Y-127979580D01*
X54285714Y-127979580D02*
X54238095Y-127884342D01*
X54238095Y-127884342D02*
X54190476Y-127693866D01*
X54190476Y-127693866D02*
X54190476Y-127455771D01*
X54190476Y-127455771D02*
X54238095Y-127265295D01*
X54238095Y-127265295D02*
X54285714Y-127170057D01*
X54285714Y-127170057D02*
X54333333Y-127122438D01*
X54333333Y-127122438D02*
X54428571Y-127074819D01*
X58334819Y-118833333D02*
X59049104Y-118833333D01*
X59049104Y-118833333D02*
X59191961Y-118880952D01*
X59191961Y-118880952D02*
X59287200Y-118976190D01*
X59287200Y-118976190D02*
X59334819Y-119119047D01*
X59334819Y-119119047D02*
X59334819Y-119214285D01*
X58334819Y-118452380D02*
X58334819Y-117833333D01*
X58334819Y-117833333D02*
X58715771Y-118166666D01*
X58715771Y-118166666D02*
X58715771Y-118023809D01*
X58715771Y-118023809D02*
X58763390Y-117928571D01*
X58763390Y-117928571D02*
X58811009Y-117880952D01*
X58811009Y-117880952D02*
X58906247Y-117833333D01*
X58906247Y-117833333D02*
X59144342Y-117833333D01*
X59144342Y-117833333D02*
X59239580Y-117880952D01*
X59239580Y-117880952D02*
X59287200Y-117928571D01*
X59287200Y-117928571D02*
X59334819Y-118023809D01*
X59334819Y-118023809D02*
X59334819Y-118309523D01*
X59334819Y-118309523D02*
X59287200Y-118404761D01*
X59287200Y-118404761D02*
X59239580Y-118452380D01*
X53166666Y-105574819D02*
X53166666Y-106289104D01*
X53166666Y-106289104D02*
X53119047Y-106431961D01*
X53119047Y-106431961D02*
X53023809Y-106527200D01*
X53023809Y-106527200D02*
X52880952Y-106574819D01*
X52880952Y-106574819D02*
X52785714Y-106574819D01*
X53595238Y-105670057D02*
X53642857Y-105622438D01*
X53642857Y-105622438D02*
X53738095Y-105574819D01*
X53738095Y-105574819D02*
X53976190Y-105574819D01*
X53976190Y-105574819D02*
X54071428Y-105622438D01*
X54071428Y-105622438D02*
X54119047Y-105670057D01*
X54119047Y-105670057D02*
X54166666Y-105765295D01*
X54166666Y-105765295D02*
X54166666Y-105860533D01*
X54166666Y-105860533D02*
X54119047Y-106003390D01*
X54119047Y-106003390D02*
X53547619Y-106574819D01*
X53547619Y-106574819D02*
X54166666Y-106574819D01*
X95574819Y-109833333D02*
X96289104Y-109833333D01*
X96289104Y-109833333D02*
X96431961Y-109880952D01*
X96431961Y-109880952D02*
X96527200Y-109976190D01*
X96527200Y-109976190D02*
X96574819Y-110119047D01*
X96574819Y-110119047D02*
X96574819Y-110214285D01*
X96574819Y-108833333D02*
X96574819Y-109404761D01*
X96574819Y-109119047D02*
X95574819Y-109119047D01*
X95574819Y-109119047D02*
X95717676Y-109214285D01*
X95717676Y-109214285D02*
X95812914Y-109309523D01*
X95812914Y-109309523D02*
X95860533Y-109404761D01*
X66897142Y-101609580D02*
X66849523Y-101657200D01*
X66849523Y-101657200D02*
X66706666Y-101704819D01*
X66706666Y-101704819D02*
X66611428Y-101704819D01*
X66611428Y-101704819D02*
X66468571Y-101657200D01*
X66468571Y-101657200D02*
X66373333Y-101561961D01*
X66373333Y-101561961D02*
X66325714Y-101466723D01*
X66325714Y-101466723D02*
X66278095Y-101276247D01*
X66278095Y-101276247D02*
X66278095Y-101133390D01*
X66278095Y-101133390D02*
X66325714Y-100942914D01*
X66325714Y-100942914D02*
X66373333Y-100847676D01*
X66373333Y-100847676D02*
X66468571Y-100752438D01*
X66468571Y-100752438D02*
X66611428Y-100704819D01*
X66611428Y-100704819D02*
X66706666Y-100704819D01*
X66706666Y-100704819D02*
X66849523Y-100752438D01*
X66849523Y-100752438D02*
X66897142Y-100800057D01*
X67849523Y-101704819D02*
X67278095Y-101704819D01*
X67563809Y-101704819D02*
X67563809Y-100704819D01*
X67563809Y-100704819D02*
X67468571Y-100847676D01*
X67468571Y-100847676D02*
X67373333Y-100942914D01*
X67373333Y-100942914D02*
X67278095Y-100990533D01*
X68230476Y-100800057D02*
X68278095Y-100752438D01*
X68278095Y-100752438D02*
X68373333Y-100704819D01*
X68373333Y-100704819D02*
X68611428Y-100704819D01*
X68611428Y-100704819D02*
X68706666Y-100752438D01*
X68706666Y-100752438D02*
X68754285Y-100800057D01*
X68754285Y-100800057D02*
X68801904Y-100895295D01*
X68801904Y-100895295D02*
X68801904Y-100990533D01*
X68801904Y-100990533D02*
X68754285Y-101133390D01*
X68754285Y-101133390D02*
X68182857Y-101704819D01*
X68182857Y-101704819D02*
X68801904Y-101704819D01*
X69107142Y-104109580D02*
X69059523Y-104157200D01*
X69059523Y-104157200D02*
X68916666Y-104204819D01*
X68916666Y-104204819D02*
X68821428Y-104204819D01*
X68821428Y-104204819D02*
X68678571Y-104157200D01*
X68678571Y-104157200D02*
X68583333Y-104061961D01*
X68583333Y-104061961D02*
X68535714Y-103966723D01*
X68535714Y-103966723D02*
X68488095Y-103776247D01*
X68488095Y-103776247D02*
X68488095Y-103633390D01*
X68488095Y-103633390D02*
X68535714Y-103442914D01*
X68535714Y-103442914D02*
X68583333Y-103347676D01*
X68583333Y-103347676D02*
X68678571Y-103252438D01*
X68678571Y-103252438D02*
X68821428Y-103204819D01*
X68821428Y-103204819D02*
X68916666Y-103204819D01*
X68916666Y-103204819D02*
X69059523Y-103252438D01*
X69059523Y-103252438D02*
X69107142Y-103300057D01*
X70059523Y-104204819D02*
X69488095Y-104204819D01*
X69773809Y-104204819D02*
X69773809Y-103204819D01*
X69773809Y-103204819D02*
X69678571Y-103347676D01*
X69678571Y-103347676D02*
X69583333Y-103442914D01*
X69583333Y-103442914D02*
X69488095Y-103490533D01*
X71011904Y-104204819D02*
X70440476Y-104204819D01*
X70726190Y-104204819D02*
X70726190Y-103204819D01*
X70726190Y-103204819D02*
X70630952Y-103347676D01*
X70630952Y-103347676D02*
X70535714Y-103442914D01*
X70535714Y-103442914D02*
X70440476Y-103490533D01*
X83857142Y-98609580D02*
X83809523Y-98657200D01*
X83809523Y-98657200D02*
X83666666Y-98704819D01*
X83666666Y-98704819D02*
X83571428Y-98704819D01*
X83571428Y-98704819D02*
X83428571Y-98657200D01*
X83428571Y-98657200D02*
X83333333Y-98561961D01*
X83333333Y-98561961D02*
X83285714Y-98466723D01*
X83285714Y-98466723D02*
X83238095Y-98276247D01*
X83238095Y-98276247D02*
X83238095Y-98133390D01*
X83238095Y-98133390D02*
X83285714Y-97942914D01*
X83285714Y-97942914D02*
X83333333Y-97847676D01*
X83333333Y-97847676D02*
X83428571Y-97752438D01*
X83428571Y-97752438D02*
X83571428Y-97704819D01*
X83571428Y-97704819D02*
X83666666Y-97704819D01*
X83666666Y-97704819D02*
X83809523Y-97752438D01*
X83809523Y-97752438D02*
X83857142Y-97800057D01*
X84809523Y-98704819D02*
X84238095Y-98704819D01*
X84523809Y-98704819D02*
X84523809Y-97704819D01*
X84523809Y-97704819D02*
X84428571Y-97847676D01*
X84428571Y-97847676D02*
X84333333Y-97942914D01*
X84333333Y-97942914D02*
X84238095Y-97990533D01*
X85428571Y-97704819D02*
X85523809Y-97704819D01*
X85523809Y-97704819D02*
X85619047Y-97752438D01*
X85619047Y-97752438D02*
X85666666Y-97800057D01*
X85666666Y-97800057D02*
X85714285Y-97895295D01*
X85714285Y-97895295D02*
X85761904Y-98085771D01*
X85761904Y-98085771D02*
X85761904Y-98323866D01*
X85761904Y-98323866D02*
X85714285Y-98514342D01*
X85714285Y-98514342D02*
X85666666Y-98609580D01*
X85666666Y-98609580D02*
X85619047Y-98657200D01*
X85619047Y-98657200D02*
X85523809Y-98704819D01*
X85523809Y-98704819D02*
X85428571Y-98704819D01*
X85428571Y-98704819D02*
X85333333Y-98657200D01*
X85333333Y-98657200D02*
X85285714Y-98609580D01*
X85285714Y-98609580D02*
X85238095Y-98514342D01*
X85238095Y-98514342D02*
X85190476Y-98323866D01*
X85190476Y-98323866D02*
X85190476Y-98085771D01*
X85190476Y-98085771D02*
X85238095Y-97895295D01*
X85238095Y-97895295D02*
X85285714Y-97800057D01*
X85285714Y-97800057D02*
X85333333Y-97752438D01*
X85333333Y-97752438D02*
X85428571Y-97704819D01*
X57109580Y-141666666D02*
X57157200Y-141714285D01*
X57157200Y-141714285D02*
X57204819Y-141857142D01*
X57204819Y-141857142D02*
X57204819Y-141952380D01*
X57204819Y-141952380D02*
X57157200Y-142095237D01*
X57157200Y-142095237D02*
X57061961Y-142190475D01*
X57061961Y-142190475D02*
X56966723Y-142238094D01*
X56966723Y-142238094D02*
X56776247Y-142285713D01*
X56776247Y-142285713D02*
X56633390Y-142285713D01*
X56633390Y-142285713D02*
X56442914Y-142238094D01*
X56442914Y-142238094D02*
X56347676Y-142190475D01*
X56347676Y-142190475D02*
X56252438Y-142095237D01*
X56252438Y-142095237D02*
X56204819Y-141952380D01*
X56204819Y-141952380D02*
X56204819Y-141857142D01*
X56204819Y-141857142D02*
X56252438Y-141714285D01*
X56252438Y-141714285D02*
X56300057Y-141666666D01*
X57204819Y-141190475D02*
X57204819Y-140999999D01*
X57204819Y-140999999D02*
X57157200Y-140904761D01*
X57157200Y-140904761D02*
X57109580Y-140857142D01*
X57109580Y-140857142D02*
X56966723Y-140761904D01*
X56966723Y-140761904D02*
X56776247Y-140714285D01*
X56776247Y-140714285D02*
X56395295Y-140714285D01*
X56395295Y-140714285D02*
X56300057Y-140761904D01*
X56300057Y-140761904D02*
X56252438Y-140809523D01*
X56252438Y-140809523D02*
X56204819Y-140904761D01*
X56204819Y-140904761D02*
X56204819Y-141095237D01*
X56204819Y-141095237D02*
X56252438Y-141190475D01*
X56252438Y-141190475D02*
X56300057Y-141238094D01*
X56300057Y-141238094D02*
X56395295Y-141285713D01*
X56395295Y-141285713D02*
X56633390Y-141285713D01*
X56633390Y-141285713D02*
X56728628Y-141238094D01*
X56728628Y-141238094D02*
X56776247Y-141190475D01*
X56776247Y-141190475D02*
X56823866Y-141095237D01*
X56823866Y-141095237D02*
X56823866Y-140904761D01*
X56823866Y-140904761D02*
X56776247Y-140809523D01*
X56776247Y-140809523D02*
X56728628Y-140761904D01*
X56728628Y-140761904D02*
X56633390Y-140714285D01*
X76333333Y-111609580D02*
X76285714Y-111657200D01*
X76285714Y-111657200D02*
X76142857Y-111704819D01*
X76142857Y-111704819D02*
X76047619Y-111704819D01*
X76047619Y-111704819D02*
X75904762Y-111657200D01*
X75904762Y-111657200D02*
X75809524Y-111561961D01*
X75809524Y-111561961D02*
X75761905Y-111466723D01*
X75761905Y-111466723D02*
X75714286Y-111276247D01*
X75714286Y-111276247D02*
X75714286Y-111133390D01*
X75714286Y-111133390D02*
X75761905Y-110942914D01*
X75761905Y-110942914D02*
X75809524Y-110847676D01*
X75809524Y-110847676D02*
X75904762Y-110752438D01*
X75904762Y-110752438D02*
X76047619Y-110704819D01*
X76047619Y-110704819D02*
X76142857Y-110704819D01*
X76142857Y-110704819D02*
X76285714Y-110752438D01*
X76285714Y-110752438D02*
X76333333Y-110800057D01*
X77190476Y-110704819D02*
X77000000Y-110704819D01*
X77000000Y-110704819D02*
X76904762Y-110752438D01*
X76904762Y-110752438D02*
X76857143Y-110800057D01*
X76857143Y-110800057D02*
X76761905Y-110942914D01*
X76761905Y-110942914D02*
X76714286Y-111133390D01*
X76714286Y-111133390D02*
X76714286Y-111514342D01*
X76714286Y-111514342D02*
X76761905Y-111609580D01*
X76761905Y-111609580D02*
X76809524Y-111657200D01*
X76809524Y-111657200D02*
X76904762Y-111704819D01*
X76904762Y-111704819D02*
X77095238Y-111704819D01*
X77095238Y-111704819D02*
X77190476Y-111657200D01*
X77190476Y-111657200D02*
X77238095Y-111609580D01*
X77238095Y-111609580D02*
X77285714Y-111514342D01*
X77285714Y-111514342D02*
X77285714Y-111276247D01*
X77285714Y-111276247D02*
X77238095Y-111181009D01*
X77238095Y-111181009D02*
X77190476Y-111133390D01*
X77190476Y-111133390D02*
X77095238Y-111085771D01*
X77095238Y-111085771D02*
X76904762Y-111085771D01*
X76904762Y-111085771D02*
X76809524Y-111133390D01*
X76809524Y-111133390D02*
X76761905Y-111181009D01*
X76761905Y-111181009D02*
X76714286Y-111276247D01*
X84333333Y-105609580D02*
X84285714Y-105657200D01*
X84285714Y-105657200D02*
X84142857Y-105704819D01*
X84142857Y-105704819D02*
X84047619Y-105704819D01*
X84047619Y-105704819D02*
X83904762Y-105657200D01*
X83904762Y-105657200D02*
X83809524Y-105561961D01*
X83809524Y-105561961D02*
X83761905Y-105466723D01*
X83761905Y-105466723D02*
X83714286Y-105276247D01*
X83714286Y-105276247D02*
X83714286Y-105133390D01*
X83714286Y-105133390D02*
X83761905Y-104942914D01*
X83761905Y-104942914D02*
X83809524Y-104847676D01*
X83809524Y-104847676D02*
X83904762Y-104752438D01*
X83904762Y-104752438D02*
X84047619Y-104704819D01*
X84047619Y-104704819D02*
X84142857Y-104704819D01*
X84142857Y-104704819D02*
X84285714Y-104752438D01*
X84285714Y-104752438D02*
X84333333Y-104800057D01*
X85238095Y-104704819D02*
X84761905Y-104704819D01*
X84761905Y-104704819D02*
X84714286Y-105181009D01*
X84714286Y-105181009D02*
X84761905Y-105133390D01*
X84761905Y-105133390D02*
X84857143Y-105085771D01*
X84857143Y-105085771D02*
X85095238Y-105085771D01*
X85095238Y-105085771D02*
X85190476Y-105133390D01*
X85190476Y-105133390D02*
X85238095Y-105181009D01*
X85238095Y-105181009D02*
X85285714Y-105276247D01*
X85285714Y-105276247D02*
X85285714Y-105514342D01*
X85285714Y-105514342D02*
X85238095Y-105609580D01*
X85238095Y-105609580D02*
X85190476Y-105657200D01*
X85190476Y-105657200D02*
X85095238Y-105704819D01*
X85095238Y-105704819D02*
X84857143Y-105704819D01*
X84857143Y-105704819D02*
X84761905Y-105657200D01*
X84761905Y-105657200D02*
X84714286Y-105609580D01*
X92833333Y-138609580D02*
X92785714Y-138657200D01*
X92785714Y-138657200D02*
X92642857Y-138704819D01*
X92642857Y-138704819D02*
X92547619Y-138704819D01*
X92547619Y-138704819D02*
X92404762Y-138657200D01*
X92404762Y-138657200D02*
X92309524Y-138561961D01*
X92309524Y-138561961D02*
X92261905Y-138466723D01*
X92261905Y-138466723D02*
X92214286Y-138276247D01*
X92214286Y-138276247D02*
X92214286Y-138133390D01*
X92214286Y-138133390D02*
X92261905Y-137942914D01*
X92261905Y-137942914D02*
X92309524Y-137847676D01*
X92309524Y-137847676D02*
X92404762Y-137752438D01*
X92404762Y-137752438D02*
X92547619Y-137704819D01*
X92547619Y-137704819D02*
X92642857Y-137704819D01*
X92642857Y-137704819D02*
X92785714Y-137752438D01*
X92785714Y-137752438D02*
X92833333Y-137800057D01*
X93690476Y-138038152D02*
X93690476Y-138704819D01*
X93452381Y-137657200D02*
X93214286Y-138371485D01*
X93214286Y-138371485D02*
X93833333Y-138371485D01*
X84833333Y-130609580D02*
X84785714Y-130657200D01*
X84785714Y-130657200D02*
X84642857Y-130704819D01*
X84642857Y-130704819D02*
X84547619Y-130704819D01*
X84547619Y-130704819D02*
X84404762Y-130657200D01*
X84404762Y-130657200D02*
X84309524Y-130561961D01*
X84309524Y-130561961D02*
X84261905Y-130466723D01*
X84261905Y-130466723D02*
X84214286Y-130276247D01*
X84214286Y-130276247D02*
X84214286Y-130133390D01*
X84214286Y-130133390D02*
X84261905Y-129942914D01*
X84261905Y-129942914D02*
X84309524Y-129847676D01*
X84309524Y-129847676D02*
X84404762Y-129752438D01*
X84404762Y-129752438D02*
X84547619Y-129704819D01*
X84547619Y-129704819D02*
X84642857Y-129704819D01*
X84642857Y-129704819D02*
X84785714Y-129752438D01*
X84785714Y-129752438D02*
X84833333Y-129800057D01*
X85785714Y-130704819D02*
X85214286Y-130704819D01*
X85500000Y-130704819D02*
X85500000Y-129704819D01*
X85500000Y-129704819D02*
X85404762Y-129847676D01*
X85404762Y-129847676D02*
X85309524Y-129942914D01*
X85309524Y-129942914D02*
X85214286Y-129990533D01*
D11*
%TO.C,D1*%
X96470000Y-119530000D02*
X96470000Y-119660000D01*
X96470000Y-122470000D02*
X96470000Y-122340000D01*
X100890000Y-122470000D02*
X100890000Y-119530000D01*
X101010000Y-122470000D02*
X101010000Y-119530000D01*
X101130000Y-122470000D02*
X101130000Y-119530000D01*
X101910000Y-119530000D02*
X96470000Y-119530000D01*
X101910000Y-119660000D02*
X101910000Y-119530000D01*
X101910000Y-122340000D02*
X101910000Y-122470000D01*
X101910000Y-122470000D02*
X96470000Y-122470000D01*
%TO.C,C8*%
X112020000Y-141500000D02*
G75*
G02*
X105480000Y-141500000I-3270000J0D01*
G01*
X105480000Y-141500000D02*
G75*
G02*
X112020000Y-141500000I3270000J0D01*
G01*
X111990000Y-141098000D02*
X111990000Y-141902000D01*
X111950000Y-140867000D02*
X111950000Y-142133000D01*
X111910000Y-140699000D02*
X111910000Y-142301000D01*
X111870000Y-140561000D02*
X111870000Y-142439000D01*
X111830000Y-140442000D02*
X111830000Y-142558000D01*
X111790000Y-140335000D02*
X111790000Y-142665000D01*
X111750000Y-140239000D02*
X111750000Y-142761000D01*
X111710000Y-140150000D02*
X111710000Y-142850000D01*
X111670000Y-140068000D02*
X111670000Y-142932000D01*
X111630000Y-139991000D02*
X111630000Y-143009000D01*
X111590000Y-139919000D02*
X111590000Y-143081000D01*
X111550000Y-139851000D02*
X111550000Y-143149000D01*
X111510000Y-139786000D02*
X111510000Y-143214000D01*
X111470000Y-139725000D02*
X111470000Y-143275000D01*
X111430000Y-139666000D02*
X111430000Y-143334000D01*
X111390000Y-139610000D02*
X111390000Y-143390000D01*
X111350000Y-139557000D02*
X111350000Y-143443000D01*
X111310000Y-139505000D02*
X111310000Y-143495000D01*
X111270000Y-139456000D02*
X111270000Y-143544000D01*
X111230000Y-139409000D02*
X111230000Y-143591000D01*
X111190000Y-139363000D02*
X111190000Y-143637000D01*
X111150000Y-139319000D02*
X111150000Y-143681000D01*
X111110000Y-139277000D02*
X111110000Y-143723000D01*
X111070000Y-139236000D02*
X111070000Y-143764000D01*
X111030000Y-142540000D02*
X111030000Y-143804000D01*
X111030000Y-139196000D02*
X111030000Y-140460000D01*
X110990000Y-142540000D02*
X110990000Y-143842000D01*
X110990000Y-139158000D02*
X110990000Y-140460000D01*
X110950000Y-142540000D02*
X110950000Y-143879000D01*
X110950000Y-139121000D02*
X110950000Y-140460000D01*
X110910000Y-142540000D02*
X110910000Y-143915000D01*
X110910000Y-139085000D02*
X110910000Y-140460000D01*
X110870000Y-142540000D02*
X110870000Y-143950000D01*
X110870000Y-139050000D02*
X110870000Y-140460000D01*
X110830000Y-142540000D02*
X110830000Y-143983000D01*
X110830000Y-139017000D02*
X110830000Y-140460000D01*
X110790000Y-142540000D02*
X110790000Y-144016000D01*
X110790000Y-138984000D02*
X110790000Y-140460000D01*
X110750000Y-142540000D02*
X110750000Y-144047000D01*
X110750000Y-138953000D02*
X110750000Y-140460000D01*
X110710000Y-142540000D02*
X110710000Y-144077000D01*
X110710000Y-138923000D02*
X110710000Y-140460000D01*
X110670000Y-142540000D02*
X110670000Y-144107000D01*
X110670000Y-138893000D02*
X110670000Y-140460000D01*
X110630000Y-142540000D02*
X110630000Y-144136000D01*
X110630000Y-138864000D02*
X110630000Y-140460000D01*
X110590000Y-142540000D02*
X110590000Y-144163000D01*
X110590000Y-138837000D02*
X110590000Y-140460000D01*
X110550000Y-142540000D02*
X110550000Y-144190000D01*
X110550000Y-138810000D02*
X110550000Y-140460000D01*
X110510000Y-142540000D02*
X110510000Y-144216000D01*
X110510000Y-138784000D02*
X110510000Y-140460000D01*
X110470000Y-142540000D02*
X110470000Y-144241000D01*
X110470000Y-138759000D02*
X110470000Y-140460000D01*
X110430000Y-142540000D02*
X110430000Y-144265000D01*
X110430000Y-138735000D02*
X110430000Y-140460000D01*
X110390000Y-142540000D02*
X110390000Y-144289000D01*
X110390000Y-138711000D02*
X110390000Y-140460000D01*
X110350000Y-142540000D02*
X110350000Y-144312000D01*
X110350000Y-138688000D02*
X110350000Y-140460000D01*
X110310000Y-142540000D02*
X110310000Y-144334000D01*
X110310000Y-138666000D02*
X110310000Y-140460000D01*
X110270000Y-142540000D02*
X110270000Y-144355000D01*
X110270000Y-138645000D02*
X110270000Y-140460000D01*
X110230000Y-142540000D02*
X110230000Y-144376000D01*
X110230000Y-138624000D02*
X110230000Y-140460000D01*
X110190000Y-142540000D02*
X110190000Y-144396000D01*
X110190000Y-138604000D02*
X110190000Y-140460000D01*
X110150000Y-142540000D02*
X110150000Y-144415000D01*
X110150000Y-138585000D02*
X110150000Y-140460000D01*
X110110000Y-142540000D02*
X110110000Y-144434000D01*
X110110000Y-138566000D02*
X110110000Y-140460000D01*
X110070000Y-142540000D02*
X110070000Y-144452000D01*
X110070000Y-138548000D02*
X110070000Y-140460000D01*
X110030000Y-142540000D02*
X110030000Y-144469000D01*
X110030000Y-138531000D02*
X110030000Y-140460000D01*
X109990000Y-142540000D02*
X109990000Y-144486000D01*
X109990000Y-138514000D02*
X109990000Y-140460000D01*
X109950000Y-142540000D02*
X109950000Y-144502000D01*
X109950000Y-138498000D02*
X109950000Y-140460000D01*
X109910000Y-142540000D02*
X109910000Y-144517000D01*
X109910000Y-138483000D02*
X109910000Y-140460000D01*
X109870000Y-142540000D02*
X109870000Y-144532000D01*
X109870000Y-138468000D02*
X109870000Y-140460000D01*
X109830000Y-142540000D02*
X109830000Y-144547000D01*
X109830000Y-138453000D02*
X109830000Y-140460000D01*
X109790000Y-142540000D02*
X109790000Y-144560000D01*
X109790000Y-138440000D02*
X109790000Y-140460000D01*
X109750000Y-142540000D02*
X109750000Y-144573000D01*
X109750000Y-138427000D02*
X109750000Y-140460000D01*
X109710000Y-142540000D02*
X109710000Y-144586000D01*
X109710000Y-138414000D02*
X109710000Y-140460000D01*
X109670000Y-142540000D02*
X109670000Y-144598000D01*
X109670000Y-138402000D02*
X109670000Y-140460000D01*
X109630000Y-142540000D02*
X109630000Y-144609000D01*
X109630000Y-138391000D02*
X109630000Y-140460000D01*
X109590000Y-142540000D02*
X109590000Y-144620000D01*
X109590000Y-138380000D02*
X109590000Y-140460000D01*
X109550000Y-142540000D02*
X109550000Y-144631000D01*
X109550000Y-138369000D02*
X109550000Y-140460000D01*
X109510000Y-142540000D02*
X109510000Y-144640000D01*
X109510000Y-138360000D02*
X109510000Y-140460000D01*
X109470000Y-142540000D02*
X109470000Y-144650000D01*
X109470000Y-138350000D02*
X109470000Y-140460000D01*
X109430000Y-142540000D02*
X109430000Y-144659000D01*
X109430000Y-138341000D02*
X109430000Y-140460000D01*
X109390000Y-142540000D02*
X109390000Y-144667000D01*
X109390000Y-138333000D02*
X109390000Y-140460000D01*
X109350000Y-142540000D02*
X109350000Y-144674000D01*
X109350000Y-138326000D02*
X109350000Y-140460000D01*
X109310000Y-142540000D02*
X109310000Y-144682000D01*
X109310000Y-138318000D02*
X109310000Y-140460000D01*
X109270000Y-142540000D02*
X109270000Y-144688000D01*
X109270000Y-138312000D02*
X109270000Y-140460000D01*
X109230000Y-142540000D02*
X109230000Y-144695000D01*
X109230000Y-138305000D02*
X109230000Y-140460000D01*
X109190000Y-142540000D02*
X109190000Y-144700000D01*
X109190000Y-138300000D02*
X109190000Y-140460000D01*
X109150000Y-142540000D02*
X109150000Y-144705000D01*
X109150000Y-138295000D02*
X109150000Y-140460000D01*
X109110000Y-142540000D02*
X109110000Y-144710000D01*
X109110000Y-138290000D02*
X109110000Y-140460000D01*
X109070000Y-142540000D02*
X109070000Y-144714000D01*
X109070000Y-138286000D02*
X109070000Y-140460000D01*
X109030000Y-142540000D02*
X109030000Y-144718000D01*
X109030000Y-138282000D02*
X109030000Y-140460000D01*
X108990000Y-142540000D02*
X108990000Y-144721000D01*
X108990000Y-138279000D02*
X108990000Y-140460000D01*
X108950000Y-138276000D02*
X108950000Y-144724000D01*
X108910000Y-138274000D02*
X108910000Y-144726000D01*
X108870000Y-138272000D02*
X108870000Y-144728000D01*
X108830000Y-138271000D02*
X108830000Y-144729000D01*
X108790000Y-138270000D02*
X108790000Y-144730000D01*
X108750000Y-138270000D02*
X108750000Y-144730000D01*
X105564759Y-139346000D02*
X105564759Y-139976000D01*
X105249759Y-139661000D02*
X105879759Y-139661000D01*
%TO.C,C7*%
X112120000Y-129544888D02*
G75*
G02*
X106880000Y-129544888I-2620000J0D01*
G01*
X106880000Y-129544888D02*
G75*
G02*
X112120000Y-129544888I2620000J0D01*
G01*
X109783000Y-132144888D02*
X109217000Y-132144888D01*
X110017000Y-132104888D02*
X108983000Y-132104888D01*
X110177000Y-132064888D02*
X108823000Y-132064888D01*
X110305000Y-132024888D02*
X108695000Y-132024888D01*
X110414000Y-131984888D02*
X108586000Y-131984888D01*
X110511000Y-131944888D02*
X108489000Y-131944888D01*
X110598000Y-131904888D02*
X108402000Y-131904888D01*
X110677000Y-131864888D02*
X108323000Y-131864888D01*
X110751000Y-131824888D02*
X108249000Y-131824888D01*
X110819000Y-131784888D02*
X108181000Y-131784888D01*
X110883000Y-131744888D02*
X108117000Y-131744888D01*
X110943000Y-131704888D02*
X108057000Y-131704888D01*
X110999000Y-131664888D02*
X108001000Y-131664888D01*
X111053000Y-131624888D02*
X107947000Y-131624888D01*
X111104000Y-131584888D02*
X107896000Y-131584888D01*
X108460000Y-131544888D02*
X107848000Y-131544888D01*
X111152000Y-131544888D02*
X110540000Y-131544888D01*
X108460000Y-131504888D02*
X107801000Y-131504888D01*
X111199000Y-131504888D02*
X110540000Y-131504888D01*
X108460000Y-131464888D02*
X107757000Y-131464888D01*
X111243000Y-131464888D02*
X110540000Y-131464888D01*
X108460000Y-131424888D02*
X107715000Y-131424888D01*
X111285000Y-131424888D02*
X110540000Y-131424888D01*
X108460000Y-131384888D02*
X107675000Y-131384888D01*
X111325000Y-131384888D02*
X110540000Y-131384888D01*
X108460000Y-131344888D02*
X107636000Y-131344888D01*
X111364000Y-131344888D02*
X110540000Y-131344888D01*
X108460000Y-131304888D02*
X107599000Y-131304888D01*
X111401000Y-131304888D02*
X110540000Y-131304888D01*
X108460000Y-131264888D02*
X107564000Y-131264888D01*
X111436000Y-131264888D02*
X110540000Y-131264888D01*
X108460000Y-131224888D02*
X107530000Y-131224888D01*
X111470000Y-131224888D02*
X110540000Y-131224888D01*
X108460000Y-131184888D02*
X107497000Y-131184888D01*
X111503000Y-131184888D02*
X110540000Y-131184888D01*
X108460000Y-131144888D02*
X107465000Y-131144888D01*
X111535000Y-131144888D02*
X110540000Y-131144888D01*
X108460000Y-131104888D02*
X107435000Y-131104888D01*
X111565000Y-131104888D02*
X110540000Y-131104888D01*
X108460000Y-131064888D02*
X107406000Y-131064888D01*
X111594000Y-131064888D02*
X110540000Y-131064888D01*
X108460000Y-131024888D02*
X107378000Y-131024888D01*
X111622000Y-131024888D02*
X110540000Y-131024888D01*
X108460000Y-130984888D02*
X107351000Y-130984888D01*
X111649000Y-130984888D02*
X110540000Y-130984888D01*
X108460000Y-130944888D02*
X107325000Y-130944888D01*
X111675000Y-130944888D02*
X110540000Y-130944888D01*
X108460000Y-130904888D02*
X107301000Y-130904888D01*
X111699000Y-130904888D02*
X110540000Y-130904888D01*
X108460000Y-130864888D02*
X107277000Y-130864888D01*
X111723000Y-130864888D02*
X110540000Y-130864888D01*
X108460000Y-130824888D02*
X107254000Y-130824888D01*
X111746000Y-130824888D02*
X110540000Y-130824888D01*
X108460000Y-130784888D02*
X107232000Y-130784888D01*
X111768000Y-130784888D02*
X110540000Y-130784888D01*
X108460000Y-130744888D02*
X107211000Y-130744888D01*
X111789000Y-130744888D02*
X110540000Y-130744888D01*
X108460000Y-130704888D02*
X107191000Y-130704888D01*
X111809000Y-130704888D02*
X110540000Y-130704888D01*
X108460000Y-130664888D02*
X107171000Y-130664888D01*
X111829000Y-130664888D02*
X110540000Y-130664888D01*
X108460000Y-130624888D02*
X107153000Y-130624888D01*
X111847000Y-130624888D02*
X110540000Y-130624888D01*
X108460000Y-130584888D02*
X107135000Y-130584888D01*
X111865000Y-130584888D02*
X110540000Y-130584888D01*
X108460000Y-130544888D02*
X107118000Y-130544888D01*
X111882000Y-130544888D02*
X110540000Y-130544888D01*
X108460000Y-130504888D02*
X107102000Y-130504888D01*
X111898000Y-130504888D02*
X110540000Y-130504888D01*
X108460000Y-130464888D02*
X107087000Y-130464888D01*
X111913000Y-130464888D02*
X110540000Y-130464888D01*
X108460000Y-130424888D02*
X107072000Y-130424888D01*
X111928000Y-130424888D02*
X110540000Y-130424888D01*
X108460000Y-130384888D02*
X107058000Y-130384888D01*
X111942000Y-130384888D02*
X110540000Y-130384888D01*
X108460000Y-130344888D02*
X107045000Y-130344888D01*
X111955000Y-130344888D02*
X110540000Y-130344888D01*
X108460000Y-130304888D02*
X107033000Y-130304888D01*
X111967000Y-130304888D02*
X110540000Y-130304888D01*
X108460000Y-130264888D02*
X107021000Y-130264888D01*
X111979000Y-130264888D02*
X110540000Y-130264888D01*
X108460000Y-130224888D02*
X107010000Y-130224888D01*
X111990000Y-130224888D02*
X110540000Y-130224888D01*
X108460000Y-130184888D02*
X106999000Y-130184888D01*
X112001000Y-130184888D02*
X110540000Y-130184888D01*
X108460000Y-130144888D02*
X106990000Y-130144888D01*
X112010000Y-130144888D02*
X110540000Y-130144888D01*
X108460000Y-130104888D02*
X106981000Y-130104888D01*
X112019000Y-130104888D02*
X110540000Y-130104888D01*
X108460000Y-130064888D02*
X106972000Y-130064888D01*
X112028000Y-130064888D02*
X110540000Y-130064888D01*
X108460000Y-130024888D02*
X106964000Y-130024888D01*
X112036000Y-130024888D02*
X110540000Y-130024888D01*
X108460000Y-129984888D02*
X106957000Y-129984888D01*
X112043000Y-129984888D02*
X110540000Y-129984888D01*
X108460000Y-129944888D02*
X106951000Y-129944888D01*
X112049000Y-129944888D02*
X110540000Y-129944888D01*
X108460000Y-129904888D02*
X106945000Y-129904888D01*
X112055000Y-129904888D02*
X110540000Y-129904888D01*
X108460000Y-129864888D02*
X106940000Y-129864888D01*
X112060000Y-129864888D02*
X110540000Y-129864888D01*
X108460000Y-129824888D02*
X106935000Y-129824888D01*
X112065000Y-129824888D02*
X110540000Y-129824888D01*
X108460000Y-129784888D02*
X106931000Y-129784888D01*
X112069000Y-129784888D02*
X110540000Y-129784888D01*
X108460000Y-129744888D02*
X106928000Y-129744888D01*
X112072000Y-129744888D02*
X110540000Y-129744888D01*
X108460000Y-129704888D02*
X106925000Y-129704888D01*
X112075000Y-129704888D02*
X110540000Y-129704888D01*
X108460000Y-129664888D02*
X106923000Y-129664888D01*
X112077000Y-129664888D02*
X110540000Y-129664888D01*
X108460000Y-129624888D02*
X106921000Y-129624888D01*
X112079000Y-129624888D02*
X110540000Y-129624888D01*
X108460000Y-129584888D02*
X106920000Y-129584888D01*
X112080000Y-129584888D02*
X110540000Y-129584888D01*
X108460000Y-129544888D02*
X106920000Y-129544888D01*
X112080000Y-129544888D02*
X110540000Y-129544888D01*
X111225000Y-126990113D02*
X110725000Y-126990113D01*
X110975000Y-126740113D02*
X110975000Y-127240113D01*
%TO.C,R7*%
X101775225Y-127528620D02*
G75*
G02*
X101666728Y-129300000I1344775J-971380D01*
G01*
%TO.C,R8*%
X103724775Y-136471380D02*
G75*
G02*
X103833272Y-134700000I-1344775J971380D01*
G01*
%TO.C,J4*%
X98620000Y-140580000D02*
X100000000Y-140580000D01*
X98620000Y-141960000D02*
X98620000Y-140580000D01*
X98620000Y-143230000D02*
X98620000Y-145880000D01*
X98620000Y-143230000D02*
X101380000Y-143230000D01*
X98620000Y-145880000D02*
X101380000Y-145880000D01*
X101380000Y-143230000D02*
X101380000Y-145880000D01*
%TO.C,C3*%
X75630000Y-145880000D02*
X75630000Y-146028000D01*
X75630000Y-145880000D02*
X78870000Y-145880000D01*
X75630000Y-147972000D02*
X75630000Y-148120000D01*
X75630000Y-148120000D02*
X78870000Y-148120000D01*
X78870000Y-145880000D02*
X78870000Y-146028000D01*
X78870000Y-147972000D02*
X78870000Y-148120000D01*
%TO.C,C2*%
X71370000Y-143120000D02*
X71370000Y-142972000D01*
X71370000Y-143120000D02*
X68130000Y-143120000D01*
X71370000Y-141028000D02*
X71370000Y-140880000D01*
X71370000Y-140880000D02*
X68130000Y-140880000D01*
X68130000Y-143120000D02*
X68130000Y-142972000D01*
X68130000Y-141028000D02*
X68130000Y-140880000D01*
%TO.C,R4*%
X77195225Y-141028620D02*
G75*
G02*
X77086728Y-142800000I1344775J-971380D01*
G01*
%TO.C,R3*%
X69655225Y-146028620D02*
G75*
G02*
X69546728Y-147800000I1344775J-971380D01*
G01*
%TO.C,R15*%
X69534775Y-114471380D02*
G75*
G02*
X69643272Y-112700000I-1344775J971380D01*
G01*
%TO.C,R14*%
X61971380Y-122695225D02*
G75*
G02*
X60200000Y-122586728I-971380J-1344775D01*
G01*
%TO.C,R13*%
X61655225Y-146028620D02*
G75*
G02*
X61546728Y-147800000I1344775J-971380D01*
G01*
%TO.C,R12*%
X76804775Y-102971380D02*
G75*
G02*
X76913272Y-101200000I-1344775J971380D01*
G01*
%TO.C,R9*%
X88695225Y-118528620D02*
G75*
G02*
X88586728Y-120300000I1344775J-971380D01*
G01*
%TO.C,R6*%
X76195225Y-113028620D02*
G75*
G02*
X76086728Y-114800000I1344775J-971380D01*
G01*
%TO.C,R5*%
X84695225Y-141028620D02*
G75*
G02*
X84586728Y-142800000I1344775J-971380D01*
G01*
%TO.C,R2*%
X69804775Y-134971380D02*
G75*
G02*
X69913272Y-133200000I-1344775J971380D01*
G01*
%TO.C,R1*%
X77155225Y-133028620D02*
G75*
G02*
X77046728Y-134800000I1344775J-971380D01*
G01*
%TO.C,R16*%
X60920000Y-96120000D02*
X60920000Y-97500000D01*
X59540000Y-96120000D02*
X60920000Y-96120000D01*
X58270000Y-96120000D02*
X53080000Y-96120000D01*
X58270000Y-96120000D02*
X58270000Y-98880000D01*
X53080000Y-96120000D02*
X53080000Y-98880000D01*
X58270000Y-98880000D02*
X53080000Y-98880000D01*
%TO.C,U1*%
X84870000Y-124690000D02*
G75*
G02*
X84870000Y-122690000I0J1000000D01*
G01*
X84930000Y-118550000D02*
X66910000Y-118550000D01*
X66910000Y-128830000D01*
X84930000Y-128830000D01*
X84930000Y-118550000D01*
X66970000Y-126340000D02*
X84870000Y-126340000D01*
X84870000Y-126340000D02*
X84870000Y-124690000D01*
X84870000Y-122690000D02*
X84870000Y-121040000D01*
X66970000Y-121040000D02*
X66970000Y-126340000D01*
X84870000Y-121040000D02*
X66970000Y-121040000D01*
%TO.C,SW1*%
X62430000Y-105000000D02*
X61950000Y-105000000D01*
X61950000Y-104520000D01*
X62430000Y-105000000D01*
G36*
X62430000Y-105000000D02*
G01*
X61950000Y-105000000D01*
X61950000Y-104520000D01*
X62430000Y-105000000D01*
G37*
X57750000Y-113100000D02*
X57750000Y-111900000D01*
X61950000Y-113100000D02*
X57750000Y-113100000D01*
X61950000Y-111900000D02*
X61950000Y-113100000D01*
X61950000Y-104250000D02*
X61950000Y-103900000D01*
X57750000Y-103900000D02*
X57750000Y-105100000D01*
X61950000Y-103900000D02*
X57750000Y-103900000D01*
%TO.C,R11*%
X99730000Y-103380000D02*
X94540000Y-103380000D01*
X94540000Y-100620000D02*
X94540000Y-103380000D01*
X99730000Y-100620000D02*
X99730000Y-103380000D01*
X99730000Y-100620000D02*
X94540000Y-100620000D01*
X101000000Y-100620000D02*
X102380000Y-100620000D01*
X102380000Y-100620000D02*
X102380000Y-102000000D01*
%TO.C,R10*%
X54880000Y-131270000D02*
X54880000Y-136460000D01*
X52120000Y-136460000D02*
X54880000Y-136460000D01*
X52120000Y-131270000D02*
X54880000Y-131270000D01*
X52120000Y-131270000D02*
X52120000Y-136460000D01*
X52120000Y-130000000D02*
X52120000Y-128620000D01*
X52120000Y-128620000D02*
X53500000Y-128620000D01*
%TO.C,J3*%
X55230000Y-119880000D02*
X52580000Y-119880000D01*
X52580000Y-117120000D02*
X52580000Y-119880000D01*
X55230000Y-117120000D02*
X55230000Y-119880000D01*
X55230000Y-117120000D02*
X52580000Y-117120000D01*
X56500000Y-117120000D02*
X57880000Y-117120000D01*
X57880000Y-117120000D02*
X57880000Y-118500000D01*
%TO.C,J2*%
X54880000Y-109770000D02*
X54880000Y-112420000D01*
X52120000Y-112420000D02*
X54880000Y-112420000D01*
X52120000Y-109770000D02*
X54880000Y-109770000D01*
X52120000Y-109770000D02*
X52120000Y-112420000D01*
X52120000Y-108500000D02*
X52120000Y-107120000D01*
X52120000Y-107120000D02*
X53500000Y-107120000D01*
%TO.C,J1*%
X99770000Y-108120000D02*
X102420000Y-108120000D01*
X102420000Y-110880000D02*
X102420000Y-108120000D01*
X99770000Y-110880000D02*
X99770000Y-108120000D01*
X99770000Y-110880000D02*
X102420000Y-110880000D01*
X98500000Y-110880000D02*
X97120000Y-110880000D01*
X97120000Y-110880000D02*
X97120000Y-109500000D01*
%TO.C,C12*%
X70160000Y-97500000D02*
G75*
G02*
X64920000Y-97500000I-2620000J0D01*
G01*
X64920000Y-97500000D02*
G75*
G02*
X70160000Y-97500000I2620000J0D01*
G01*
X64940000Y-97783000D02*
X64940000Y-97217000D01*
X64980000Y-98017000D02*
X64980000Y-96983000D01*
X65020000Y-98177000D02*
X65020000Y-96823000D01*
X65060000Y-98305000D02*
X65060000Y-96695000D01*
X65100000Y-98414000D02*
X65100000Y-96586000D01*
X65140000Y-98511000D02*
X65140000Y-96489000D01*
X65180000Y-98598000D02*
X65180000Y-96402000D01*
X65220000Y-98677000D02*
X65220000Y-96323000D01*
X65260000Y-98751000D02*
X65260000Y-96249000D01*
X65300000Y-98819000D02*
X65300000Y-96181000D01*
X65340000Y-98883000D02*
X65340000Y-96117000D01*
X65380000Y-98943000D02*
X65380000Y-96057000D01*
X65420000Y-98999000D02*
X65420000Y-96001000D01*
X65460000Y-99053000D02*
X65460000Y-95947000D01*
X65500000Y-99104000D02*
X65500000Y-95896000D01*
X65540000Y-96460000D02*
X65540000Y-95848000D01*
X65540000Y-99152000D02*
X65540000Y-98540000D01*
X65580000Y-96460000D02*
X65580000Y-95801000D01*
X65580000Y-99199000D02*
X65580000Y-98540000D01*
X65620000Y-96460000D02*
X65620000Y-95757000D01*
X65620000Y-99243000D02*
X65620000Y-98540000D01*
X65660000Y-96460000D02*
X65660000Y-95715000D01*
X65660000Y-99285000D02*
X65660000Y-98540000D01*
X65700000Y-96460000D02*
X65700000Y-95675000D01*
X65700000Y-99325000D02*
X65700000Y-98540000D01*
X65740000Y-96460000D02*
X65740000Y-95636000D01*
X65740000Y-99364000D02*
X65740000Y-98540000D01*
X65780000Y-96460000D02*
X65780000Y-95599000D01*
X65780000Y-99401000D02*
X65780000Y-98540000D01*
X65820000Y-96460000D02*
X65820000Y-95564000D01*
X65820000Y-99436000D02*
X65820000Y-98540000D01*
X65860000Y-96460000D02*
X65860000Y-95530000D01*
X65860000Y-99470000D02*
X65860000Y-98540000D01*
X65900000Y-96460000D02*
X65900000Y-95497000D01*
X65900000Y-99503000D02*
X65900000Y-98540000D01*
X65940000Y-96460000D02*
X65940000Y-95465000D01*
X65940000Y-99535000D02*
X65940000Y-98540000D01*
X65980000Y-96460000D02*
X65980000Y-95435000D01*
X65980000Y-99565000D02*
X65980000Y-98540000D01*
X66020000Y-96460000D02*
X66020000Y-95406000D01*
X66020000Y-99594000D02*
X66020000Y-98540000D01*
X66060000Y-96460000D02*
X66060000Y-95378000D01*
X66060000Y-99622000D02*
X66060000Y-98540000D01*
X66100000Y-96460000D02*
X66100000Y-95351000D01*
X66100000Y-99649000D02*
X66100000Y-98540000D01*
X66140000Y-96460000D02*
X66140000Y-95325000D01*
X66140000Y-99675000D02*
X66140000Y-98540000D01*
X66180000Y-96460000D02*
X66180000Y-95301000D01*
X66180000Y-99699000D02*
X66180000Y-98540000D01*
X66220000Y-96460000D02*
X66220000Y-95277000D01*
X66220000Y-99723000D02*
X66220000Y-98540000D01*
X66260000Y-96460000D02*
X66260000Y-95254000D01*
X66260000Y-99746000D02*
X66260000Y-98540000D01*
X66300000Y-96460000D02*
X66300000Y-95232000D01*
X66300000Y-99768000D02*
X66300000Y-98540000D01*
X66340000Y-96460000D02*
X66340000Y-95211000D01*
X66340000Y-99789000D02*
X66340000Y-98540000D01*
X66380000Y-96460000D02*
X66380000Y-95191000D01*
X66380000Y-99809000D02*
X66380000Y-98540000D01*
X66420000Y-96460000D02*
X66420000Y-95171000D01*
X66420000Y-99829000D02*
X66420000Y-98540000D01*
X66460000Y-96460000D02*
X66460000Y-95153000D01*
X66460000Y-99847000D02*
X66460000Y-98540000D01*
X66500000Y-96460000D02*
X66500000Y-95135000D01*
X66500000Y-99865000D02*
X66500000Y-98540000D01*
X66540000Y-96460000D02*
X66540000Y-95118000D01*
X66540000Y-99882000D02*
X66540000Y-98540000D01*
X66580000Y-96460000D02*
X66580000Y-95102000D01*
X66580000Y-99898000D02*
X66580000Y-98540000D01*
X66620000Y-96460000D02*
X66620000Y-95087000D01*
X66620000Y-99913000D02*
X66620000Y-98540000D01*
X66660000Y-96460000D02*
X66660000Y-95072000D01*
X66660000Y-99928000D02*
X66660000Y-98540000D01*
X66700000Y-96460000D02*
X66700000Y-95058000D01*
X66700000Y-99942000D02*
X66700000Y-98540000D01*
X66740000Y-96460000D02*
X66740000Y-95045000D01*
X66740000Y-99955000D02*
X66740000Y-98540000D01*
X66780000Y-96460000D02*
X66780000Y-95033000D01*
X66780000Y-99967000D02*
X66780000Y-98540000D01*
X66820000Y-96460000D02*
X66820000Y-95021000D01*
X66820000Y-99979000D02*
X66820000Y-98540000D01*
X66860000Y-96460000D02*
X66860000Y-95010000D01*
X66860000Y-99990000D02*
X66860000Y-98540000D01*
X66900000Y-96460000D02*
X66900000Y-94999000D01*
X66900000Y-100001000D02*
X66900000Y-98540000D01*
X66940000Y-96460000D02*
X66940000Y-94990000D01*
X66940000Y-100010000D02*
X66940000Y-98540000D01*
X66980000Y-96460000D02*
X66980000Y-94981000D01*
X66980000Y-100019000D02*
X66980000Y-98540000D01*
X67020000Y-96460000D02*
X67020000Y-94972000D01*
X67020000Y-100028000D02*
X67020000Y-98540000D01*
X67060000Y-96460000D02*
X67060000Y-94964000D01*
X67060000Y-100036000D02*
X67060000Y-98540000D01*
X67100000Y-96460000D02*
X67100000Y-94957000D01*
X67100000Y-100043000D02*
X67100000Y-98540000D01*
X67140000Y-96460000D02*
X67140000Y-94951000D01*
X67140000Y-100049000D02*
X67140000Y-98540000D01*
X67180000Y-96460000D02*
X67180000Y-94945000D01*
X67180000Y-100055000D02*
X67180000Y-98540000D01*
X67220000Y-96460000D02*
X67220000Y-94940000D01*
X67220000Y-100060000D02*
X67220000Y-98540000D01*
X67260000Y-96460000D02*
X67260000Y-94935000D01*
X67260000Y-100065000D02*
X67260000Y-98540000D01*
X67300000Y-96460000D02*
X67300000Y-94931000D01*
X67300000Y-100069000D02*
X67300000Y-98540000D01*
X67340000Y-96460000D02*
X67340000Y-94928000D01*
X67340000Y-100072000D02*
X67340000Y-98540000D01*
X67380000Y-96460000D02*
X67380000Y-94925000D01*
X67380000Y-100075000D02*
X67380000Y-98540000D01*
X67420000Y-96460000D02*
X67420000Y-94923000D01*
X67420000Y-100077000D02*
X67420000Y-98540000D01*
X67460000Y-96460000D02*
X67460000Y-94921000D01*
X67460000Y-100079000D02*
X67460000Y-98540000D01*
X67500000Y-96460000D02*
X67500000Y-94920000D01*
X67500000Y-100080000D02*
X67500000Y-98540000D01*
X67540000Y-96460000D02*
X67540000Y-94920000D01*
X67540000Y-100080000D02*
X67540000Y-98540000D01*
X70094775Y-99225000D02*
X70094775Y-98725000D01*
X70344775Y-98975000D02*
X69844775Y-98975000D01*
%TO.C,C11*%
X71370000Y-106972000D02*
X71370000Y-107120000D01*
X71370000Y-104880000D02*
X71370000Y-105028000D01*
X68130000Y-107120000D02*
X71370000Y-107120000D01*
X68130000Y-106972000D02*
X68130000Y-107120000D01*
X68130000Y-104880000D02*
X71370000Y-104880000D01*
X68130000Y-104880000D02*
X68130000Y-105028000D01*
%TO.C,C10*%
X87120000Y-102000000D02*
G75*
G02*
X81880000Y-102000000I-2620000J0D01*
G01*
X81880000Y-102000000D02*
G75*
G02*
X87120000Y-102000000I2620000J0D01*
G01*
X87100000Y-101717000D02*
X87100000Y-102283000D01*
X87060000Y-101483000D02*
X87060000Y-102517000D01*
X87020000Y-101323000D02*
X87020000Y-102677000D01*
X86980000Y-101195000D02*
X86980000Y-102805000D01*
X86940000Y-101086000D02*
X86940000Y-102914000D01*
X86900000Y-100989000D02*
X86900000Y-103011000D01*
X86860000Y-100902000D02*
X86860000Y-103098000D01*
X86820000Y-100823000D02*
X86820000Y-103177000D01*
X86780000Y-100749000D02*
X86780000Y-103251000D01*
X86740000Y-100681000D02*
X86740000Y-103319000D01*
X86700000Y-100617000D02*
X86700000Y-103383000D01*
X86660000Y-100557000D02*
X86660000Y-103443000D01*
X86620000Y-100501000D02*
X86620000Y-103499000D01*
X86580000Y-100447000D02*
X86580000Y-103553000D01*
X86540000Y-100396000D02*
X86540000Y-103604000D01*
X86500000Y-103040000D02*
X86500000Y-103652000D01*
X86500000Y-100348000D02*
X86500000Y-100960000D01*
X86460000Y-103040000D02*
X86460000Y-103699000D01*
X86460000Y-100301000D02*
X86460000Y-100960000D01*
X86420000Y-103040000D02*
X86420000Y-103743000D01*
X86420000Y-100257000D02*
X86420000Y-100960000D01*
X86380000Y-103040000D02*
X86380000Y-103785000D01*
X86380000Y-100215000D02*
X86380000Y-100960000D01*
X86340000Y-103040000D02*
X86340000Y-103825000D01*
X86340000Y-100175000D02*
X86340000Y-100960000D01*
X86300000Y-103040000D02*
X86300000Y-103864000D01*
X86300000Y-100136000D02*
X86300000Y-100960000D01*
X86260000Y-103040000D02*
X86260000Y-103901000D01*
X86260000Y-100099000D02*
X86260000Y-100960000D01*
X86220000Y-103040000D02*
X86220000Y-103936000D01*
X86220000Y-100064000D02*
X86220000Y-100960000D01*
X86180000Y-103040000D02*
X86180000Y-103970000D01*
X86180000Y-100030000D02*
X86180000Y-100960000D01*
X86140000Y-103040000D02*
X86140000Y-104003000D01*
X86140000Y-99997000D02*
X86140000Y-100960000D01*
X86100000Y-103040000D02*
X86100000Y-104035000D01*
X86100000Y-99965000D02*
X86100000Y-100960000D01*
X86060000Y-103040000D02*
X86060000Y-104065000D01*
X86060000Y-99935000D02*
X86060000Y-100960000D01*
X86020000Y-103040000D02*
X86020000Y-104094000D01*
X86020000Y-99906000D02*
X86020000Y-100960000D01*
X85980000Y-103040000D02*
X85980000Y-104122000D01*
X85980000Y-99878000D02*
X85980000Y-100960000D01*
X85940000Y-103040000D02*
X85940000Y-104149000D01*
X85940000Y-99851000D02*
X85940000Y-100960000D01*
X85900000Y-103040000D02*
X85900000Y-104175000D01*
X85900000Y-99825000D02*
X85900000Y-100960000D01*
X85860000Y-103040000D02*
X85860000Y-104199000D01*
X85860000Y-99801000D02*
X85860000Y-100960000D01*
X85820000Y-103040000D02*
X85820000Y-104223000D01*
X85820000Y-99777000D02*
X85820000Y-100960000D01*
X85780000Y-103040000D02*
X85780000Y-104246000D01*
X85780000Y-99754000D02*
X85780000Y-100960000D01*
X85740000Y-103040000D02*
X85740000Y-104268000D01*
X85740000Y-99732000D02*
X85740000Y-100960000D01*
X85700000Y-103040000D02*
X85700000Y-104289000D01*
X85700000Y-99711000D02*
X85700000Y-100960000D01*
X85660000Y-103040000D02*
X85660000Y-104309000D01*
X85660000Y-99691000D02*
X85660000Y-100960000D01*
X85620000Y-103040000D02*
X85620000Y-104329000D01*
X85620000Y-99671000D02*
X85620000Y-100960000D01*
X85580000Y-103040000D02*
X85580000Y-104347000D01*
X85580000Y-99653000D02*
X85580000Y-100960000D01*
X85540000Y-103040000D02*
X85540000Y-104365000D01*
X85540000Y-99635000D02*
X85540000Y-100960000D01*
X85500000Y-103040000D02*
X85500000Y-104382000D01*
X85500000Y-99618000D02*
X85500000Y-100960000D01*
X85460000Y-103040000D02*
X85460000Y-104398000D01*
X85460000Y-99602000D02*
X85460000Y-100960000D01*
X85420000Y-103040000D02*
X85420000Y-104413000D01*
X85420000Y-99587000D02*
X85420000Y-100960000D01*
X85380000Y-103040000D02*
X85380000Y-104428000D01*
X85380000Y-99572000D02*
X85380000Y-100960000D01*
X85340000Y-103040000D02*
X85340000Y-104442000D01*
X85340000Y-99558000D02*
X85340000Y-100960000D01*
X85300000Y-103040000D02*
X85300000Y-104455000D01*
X85300000Y-99545000D02*
X85300000Y-100960000D01*
X85260000Y-103040000D02*
X85260000Y-104467000D01*
X85260000Y-99533000D02*
X85260000Y-100960000D01*
X85220000Y-103040000D02*
X85220000Y-104479000D01*
X85220000Y-99521000D02*
X85220000Y-100960000D01*
X85180000Y-103040000D02*
X85180000Y-104490000D01*
X85180000Y-99510000D02*
X85180000Y-100960000D01*
X85140000Y-103040000D02*
X85140000Y-104501000D01*
X85140000Y-99499000D02*
X85140000Y-100960000D01*
X85100000Y-103040000D02*
X85100000Y-104510000D01*
X85100000Y-99490000D02*
X85100000Y-100960000D01*
X85060000Y-103040000D02*
X85060000Y-104519000D01*
X85060000Y-99481000D02*
X85060000Y-100960000D01*
X85020000Y-103040000D02*
X85020000Y-104528000D01*
X85020000Y-99472000D02*
X85020000Y-100960000D01*
X84980000Y-103040000D02*
X84980000Y-104536000D01*
X84980000Y-99464000D02*
X84980000Y-100960000D01*
X84940000Y-103040000D02*
X84940000Y-104543000D01*
X84940000Y-99457000D02*
X84940000Y-100960000D01*
X84900000Y-103040000D02*
X84900000Y-104549000D01*
X84900000Y-99451000D02*
X84900000Y-100960000D01*
X84860000Y-103040000D02*
X84860000Y-104555000D01*
X84860000Y-99445000D02*
X84860000Y-100960000D01*
X84820000Y-103040000D02*
X84820000Y-104560000D01*
X84820000Y-99440000D02*
X84820000Y-100960000D01*
X84780000Y-103040000D02*
X84780000Y-104565000D01*
X84780000Y-99435000D02*
X84780000Y-100960000D01*
X84740000Y-103040000D02*
X84740000Y-104569000D01*
X84740000Y-99431000D02*
X84740000Y-100960000D01*
X84700000Y-103040000D02*
X84700000Y-104572000D01*
X84700000Y-99428000D02*
X84700000Y-100960000D01*
X84660000Y-103040000D02*
X84660000Y-104575000D01*
X84660000Y-99425000D02*
X84660000Y-100960000D01*
X84620000Y-103040000D02*
X84620000Y-104577000D01*
X84620000Y-99423000D02*
X84620000Y-100960000D01*
X84580000Y-103040000D02*
X84580000Y-104579000D01*
X84580000Y-99421000D02*
X84580000Y-100960000D01*
X84540000Y-103040000D02*
X84540000Y-104580000D01*
X84540000Y-99420000D02*
X84540000Y-100960000D01*
X84500000Y-103040000D02*
X84500000Y-104580000D01*
X84500000Y-99420000D02*
X84500000Y-100960000D01*
X81945225Y-100275000D02*
X81945225Y-100775000D01*
X81695225Y-100525000D02*
X82195225Y-100525000D01*
%TO.C,C9*%
X63120000Y-141500000D02*
G75*
G02*
X57880000Y-141500000I-2620000J0D01*
G01*
X57880000Y-141500000D02*
G75*
G02*
X63120000Y-141500000I2620000J0D01*
G01*
X60217000Y-138900000D02*
X60783000Y-138900000D01*
X59983000Y-138940000D02*
X61017000Y-138940000D01*
X59823000Y-138980000D02*
X61177000Y-138980000D01*
X59695000Y-139020000D02*
X61305000Y-139020000D01*
X59586000Y-139060000D02*
X61414000Y-139060000D01*
X59489000Y-139100000D02*
X61511000Y-139100000D01*
X59402000Y-139140000D02*
X61598000Y-139140000D01*
X59323000Y-139180000D02*
X61677000Y-139180000D01*
X59249000Y-139220000D02*
X61751000Y-139220000D01*
X59181000Y-139260000D02*
X61819000Y-139260000D01*
X59117000Y-139300000D02*
X61883000Y-139300000D01*
X59057000Y-139340000D02*
X61943000Y-139340000D01*
X59001000Y-139380000D02*
X61999000Y-139380000D01*
X58947000Y-139420000D02*
X62053000Y-139420000D01*
X58896000Y-139460000D02*
X62104000Y-139460000D01*
X61540000Y-139500000D02*
X62152000Y-139500000D01*
X58848000Y-139500000D02*
X59460000Y-139500000D01*
X61540000Y-139540000D02*
X62199000Y-139540000D01*
X58801000Y-139540000D02*
X59460000Y-139540000D01*
X61540000Y-139580000D02*
X62243000Y-139580000D01*
X58757000Y-139580000D02*
X59460000Y-139580000D01*
X61540000Y-139620000D02*
X62285000Y-139620000D01*
X58715000Y-139620000D02*
X59460000Y-139620000D01*
X61540000Y-139660000D02*
X62325000Y-139660000D01*
X58675000Y-139660000D02*
X59460000Y-139660000D01*
X61540000Y-139700000D02*
X62364000Y-139700000D01*
X58636000Y-139700000D02*
X59460000Y-139700000D01*
X61540000Y-139740000D02*
X62401000Y-139740000D01*
X58599000Y-139740000D02*
X59460000Y-139740000D01*
X61540000Y-139780000D02*
X62436000Y-139780000D01*
X58564000Y-139780000D02*
X59460000Y-139780000D01*
X61540000Y-139820000D02*
X62470000Y-139820000D01*
X58530000Y-139820000D02*
X59460000Y-139820000D01*
X61540000Y-139860000D02*
X62503000Y-139860000D01*
X58497000Y-139860000D02*
X59460000Y-139860000D01*
X61540000Y-139900000D02*
X62535000Y-139900000D01*
X58465000Y-139900000D02*
X59460000Y-139900000D01*
X61540000Y-139940000D02*
X62565000Y-139940000D01*
X58435000Y-139940000D02*
X59460000Y-139940000D01*
X61540000Y-139980000D02*
X62594000Y-139980000D01*
X58406000Y-139980000D02*
X59460000Y-139980000D01*
X61540000Y-140020000D02*
X62622000Y-140020000D01*
X58378000Y-140020000D02*
X59460000Y-140020000D01*
X61540000Y-140060000D02*
X62649000Y-140060000D01*
X58351000Y-140060000D02*
X59460000Y-140060000D01*
X61540000Y-140100000D02*
X62675000Y-140100000D01*
X58325000Y-140100000D02*
X59460000Y-140100000D01*
X61540000Y-140140000D02*
X62699000Y-140140000D01*
X58301000Y-140140000D02*
X59460000Y-140140000D01*
X61540000Y-140180000D02*
X62723000Y-140180000D01*
X58277000Y-140180000D02*
X59460000Y-140180000D01*
X61540000Y-140220000D02*
X62746000Y-140220000D01*
X58254000Y-140220000D02*
X59460000Y-140220000D01*
X61540000Y-140260000D02*
X62768000Y-140260000D01*
X58232000Y-140260000D02*
X59460000Y-140260000D01*
X61540000Y-140300000D02*
X62789000Y-140300000D01*
X58211000Y-140300000D02*
X59460000Y-140300000D01*
X61540000Y-140340000D02*
X62809000Y-140340000D01*
X58191000Y-140340000D02*
X59460000Y-140340000D01*
X61540000Y-140380000D02*
X62829000Y-140380000D01*
X58171000Y-140380000D02*
X59460000Y-140380000D01*
X61540000Y-140420000D02*
X62847000Y-140420000D01*
X58153000Y-140420000D02*
X59460000Y-140420000D01*
X61540000Y-140460000D02*
X62865000Y-140460000D01*
X58135000Y-140460000D02*
X59460000Y-140460000D01*
X61540000Y-140500000D02*
X62882000Y-140500000D01*
X58118000Y-140500000D02*
X59460000Y-140500000D01*
X61540000Y-140540000D02*
X62898000Y-140540000D01*
X58102000Y-140540000D02*
X59460000Y-140540000D01*
X61540000Y-140580000D02*
X62913000Y-140580000D01*
X58087000Y-140580000D02*
X59460000Y-140580000D01*
X61540000Y-140620000D02*
X62928000Y-140620000D01*
X58072000Y-140620000D02*
X59460000Y-140620000D01*
X61540000Y-140660000D02*
X62942000Y-140660000D01*
X58058000Y-140660000D02*
X59460000Y-140660000D01*
X61540000Y-140700000D02*
X62955000Y-140700000D01*
X58045000Y-140700000D02*
X59460000Y-140700000D01*
X61540000Y-140740000D02*
X62967000Y-140740000D01*
X58033000Y-140740000D02*
X59460000Y-140740000D01*
X61540000Y-140780000D02*
X62979000Y-140780000D01*
X58021000Y-140780000D02*
X59460000Y-140780000D01*
X61540000Y-140820000D02*
X62990000Y-140820000D01*
X58010000Y-140820000D02*
X59460000Y-140820000D01*
X61540000Y-140860000D02*
X63001000Y-140860000D01*
X57999000Y-140860000D02*
X59460000Y-140860000D01*
X61540000Y-140900000D02*
X63010000Y-140900000D01*
X57990000Y-140900000D02*
X59460000Y-140900000D01*
X61540000Y-140940000D02*
X63019000Y-140940000D01*
X57981000Y-140940000D02*
X59460000Y-140940000D01*
X61540000Y-140980000D02*
X63028000Y-140980000D01*
X57972000Y-140980000D02*
X59460000Y-140980000D01*
X61540000Y-141020000D02*
X63036000Y-141020000D01*
X57964000Y-141020000D02*
X59460000Y-141020000D01*
X61540000Y-141060000D02*
X63043000Y-141060000D01*
X57957000Y-141060000D02*
X59460000Y-141060000D01*
X61540000Y-141100000D02*
X63049000Y-141100000D01*
X57951000Y-141100000D02*
X59460000Y-141100000D01*
X61540000Y-141140000D02*
X63055000Y-141140000D01*
X57945000Y-141140000D02*
X59460000Y-141140000D01*
X61540000Y-141180000D02*
X63060000Y-141180000D01*
X57940000Y-141180000D02*
X59460000Y-141180000D01*
X61540000Y-141220000D02*
X63065000Y-141220000D01*
X57935000Y-141220000D02*
X59460000Y-141220000D01*
X61540000Y-141260000D02*
X63069000Y-141260000D01*
X57931000Y-141260000D02*
X59460000Y-141260000D01*
X61540000Y-141300000D02*
X63072000Y-141300000D01*
X57928000Y-141300000D02*
X59460000Y-141300000D01*
X61540000Y-141340000D02*
X63075000Y-141340000D01*
X57925000Y-141340000D02*
X59460000Y-141340000D01*
X61540000Y-141380000D02*
X63077000Y-141380000D01*
X57923000Y-141380000D02*
X59460000Y-141380000D01*
X61540000Y-141420000D02*
X63079000Y-141420000D01*
X57921000Y-141420000D02*
X59460000Y-141420000D01*
X61540000Y-141460000D02*
X63080000Y-141460000D01*
X57920000Y-141460000D02*
X59460000Y-141460000D01*
X61540000Y-141500000D02*
X63080000Y-141500000D01*
X57920000Y-141500000D02*
X59460000Y-141500000D01*
X58775000Y-144054775D02*
X59275000Y-144054775D01*
X59025000Y-144304775D02*
X59025000Y-143804775D01*
%TO.C,C6*%
X74880000Y-108028000D02*
X74880000Y-107880000D01*
X74880000Y-110120000D02*
X74880000Y-109972000D01*
X78120000Y-107880000D02*
X74880000Y-107880000D01*
X78120000Y-108028000D02*
X78120000Y-107880000D01*
X78120000Y-110120000D02*
X74880000Y-110120000D01*
X78120000Y-110120000D02*
X78120000Y-109972000D01*
%TO.C,C5*%
X87120000Y-109000000D02*
G75*
G02*
X81880000Y-109000000I-2620000J0D01*
G01*
X81880000Y-109000000D02*
G75*
G02*
X87120000Y-109000000I2620000J0D01*
G01*
X87100000Y-108717000D02*
X87100000Y-109283000D01*
X87060000Y-108483000D02*
X87060000Y-109517000D01*
X87020000Y-108323000D02*
X87020000Y-109677000D01*
X86980000Y-108195000D02*
X86980000Y-109805000D01*
X86940000Y-108086000D02*
X86940000Y-109914000D01*
X86900000Y-107989000D02*
X86900000Y-110011000D01*
X86860000Y-107902000D02*
X86860000Y-110098000D01*
X86820000Y-107823000D02*
X86820000Y-110177000D01*
X86780000Y-107749000D02*
X86780000Y-110251000D01*
X86740000Y-107681000D02*
X86740000Y-110319000D01*
X86700000Y-107617000D02*
X86700000Y-110383000D01*
X86660000Y-107557000D02*
X86660000Y-110443000D01*
X86620000Y-107501000D02*
X86620000Y-110499000D01*
X86580000Y-107447000D02*
X86580000Y-110553000D01*
X86540000Y-107396000D02*
X86540000Y-110604000D01*
X86500000Y-110040000D02*
X86500000Y-110652000D01*
X86500000Y-107348000D02*
X86500000Y-107960000D01*
X86460000Y-110040000D02*
X86460000Y-110699000D01*
X86460000Y-107301000D02*
X86460000Y-107960000D01*
X86420000Y-110040000D02*
X86420000Y-110743000D01*
X86420000Y-107257000D02*
X86420000Y-107960000D01*
X86380000Y-110040000D02*
X86380000Y-110785000D01*
X86380000Y-107215000D02*
X86380000Y-107960000D01*
X86340000Y-110040000D02*
X86340000Y-110825000D01*
X86340000Y-107175000D02*
X86340000Y-107960000D01*
X86300000Y-110040000D02*
X86300000Y-110864000D01*
X86300000Y-107136000D02*
X86300000Y-107960000D01*
X86260000Y-110040000D02*
X86260000Y-110901000D01*
X86260000Y-107099000D02*
X86260000Y-107960000D01*
X86220000Y-110040000D02*
X86220000Y-110936000D01*
X86220000Y-107064000D02*
X86220000Y-107960000D01*
X86180000Y-110040000D02*
X86180000Y-110970000D01*
X86180000Y-107030000D02*
X86180000Y-107960000D01*
X86140000Y-110040000D02*
X86140000Y-111003000D01*
X86140000Y-106997000D02*
X86140000Y-107960000D01*
X86100000Y-110040000D02*
X86100000Y-111035000D01*
X86100000Y-106965000D02*
X86100000Y-107960000D01*
X86060000Y-110040000D02*
X86060000Y-111065000D01*
X86060000Y-106935000D02*
X86060000Y-107960000D01*
X86020000Y-110040000D02*
X86020000Y-111094000D01*
X86020000Y-106906000D02*
X86020000Y-107960000D01*
X85980000Y-110040000D02*
X85980000Y-111122000D01*
X85980000Y-106878000D02*
X85980000Y-107960000D01*
X85940000Y-110040000D02*
X85940000Y-111149000D01*
X85940000Y-106851000D02*
X85940000Y-107960000D01*
X85900000Y-110040000D02*
X85900000Y-111175000D01*
X85900000Y-106825000D02*
X85900000Y-107960000D01*
X85860000Y-110040000D02*
X85860000Y-111199000D01*
X85860000Y-106801000D02*
X85860000Y-107960000D01*
X85820000Y-110040000D02*
X85820000Y-111223000D01*
X85820000Y-106777000D02*
X85820000Y-107960000D01*
X85780000Y-110040000D02*
X85780000Y-111246000D01*
X85780000Y-106754000D02*
X85780000Y-107960000D01*
X85740000Y-110040000D02*
X85740000Y-111268000D01*
X85740000Y-106732000D02*
X85740000Y-107960000D01*
X85700000Y-110040000D02*
X85700000Y-111289000D01*
X85700000Y-106711000D02*
X85700000Y-107960000D01*
X85660000Y-110040000D02*
X85660000Y-111309000D01*
X85660000Y-106691000D02*
X85660000Y-107960000D01*
X85620000Y-110040000D02*
X85620000Y-111329000D01*
X85620000Y-106671000D02*
X85620000Y-107960000D01*
X85580000Y-110040000D02*
X85580000Y-111347000D01*
X85580000Y-106653000D02*
X85580000Y-107960000D01*
X85540000Y-110040000D02*
X85540000Y-111365000D01*
X85540000Y-106635000D02*
X85540000Y-107960000D01*
X85500000Y-110040000D02*
X85500000Y-111382000D01*
X85500000Y-106618000D02*
X85500000Y-107960000D01*
X85460000Y-110040000D02*
X85460000Y-111398000D01*
X85460000Y-106602000D02*
X85460000Y-107960000D01*
X85420000Y-110040000D02*
X85420000Y-111413000D01*
X85420000Y-106587000D02*
X85420000Y-107960000D01*
X85380000Y-110040000D02*
X85380000Y-111428000D01*
X85380000Y-106572000D02*
X85380000Y-107960000D01*
X85340000Y-110040000D02*
X85340000Y-111442000D01*
X85340000Y-106558000D02*
X85340000Y-107960000D01*
X85300000Y-110040000D02*
X85300000Y-111455000D01*
X85300000Y-106545000D02*
X85300000Y-107960000D01*
X85260000Y-110040000D02*
X85260000Y-111467000D01*
X85260000Y-106533000D02*
X85260000Y-107960000D01*
X85220000Y-110040000D02*
X85220000Y-111479000D01*
X85220000Y-106521000D02*
X85220000Y-107960000D01*
X85180000Y-110040000D02*
X85180000Y-111490000D01*
X85180000Y-106510000D02*
X85180000Y-107960000D01*
X85140000Y-110040000D02*
X85140000Y-111501000D01*
X85140000Y-106499000D02*
X85140000Y-107960000D01*
X85100000Y-110040000D02*
X85100000Y-111510000D01*
X85100000Y-106490000D02*
X85100000Y-107960000D01*
X85060000Y-110040000D02*
X85060000Y-111519000D01*
X85060000Y-106481000D02*
X85060000Y-107960000D01*
X85020000Y-110040000D02*
X85020000Y-111528000D01*
X85020000Y-106472000D02*
X85020000Y-107960000D01*
X84980000Y-110040000D02*
X84980000Y-111536000D01*
X84980000Y-106464000D02*
X84980000Y-107960000D01*
X84940000Y-110040000D02*
X84940000Y-111543000D01*
X84940000Y-106457000D02*
X84940000Y-107960000D01*
X84900000Y-110040000D02*
X84900000Y-111549000D01*
X84900000Y-106451000D02*
X84900000Y-107960000D01*
X84860000Y-110040000D02*
X84860000Y-111555000D01*
X84860000Y-106445000D02*
X84860000Y-107960000D01*
X84820000Y-110040000D02*
X84820000Y-111560000D01*
X84820000Y-106440000D02*
X84820000Y-107960000D01*
X84780000Y-110040000D02*
X84780000Y-111565000D01*
X84780000Y-106435000D02*
X84780000Y-107960000D01*
X84740000Y-110040000D02*
X84740000Y-111569000D01*
X84740000Y-106431000D02*
X84740000Y-107960000D01*
X84700000Y-110040000D02*
X84700000Y-111572000D01*
X84700000Y-106428000D02*
X84700000Y-107960000D01*
X84660000Y-110040000D02*
X84660000Y-111575000D01*
X84660000Y-106425000D02*
X84660000Y-107960000D01*
X84620000Y-110040000D02*
X84620000Y-111577000D01*
X84620000Y-106423000D02*
X84620000Y-107960000D01*
X84580000Y-110040000D02*
X84580000Y-111579000D01*
X84580000Y-106421000D02*
X84580000Y-107960000D01*
X84540000Y-110040000D02*
X84540000Y-111580000D01*
X84540000Y-106420000D02*
X84540000Y-107960000D01*
X84500000Y-110040000D02*
X84500000Y-111580000D01*
X84500000Y-106420000D02*
X84500000Y-107960000D01*
X81945225Y-107275000D02*
X81945225Y-107775000D01*
X81695225Y-107525000D02*
X82195225Y-107525000D01*
%TO.C,C4*%
X95620000Y-142000000D02*
G75*
G02*
X90380000Y-142000000I-2620000J0D01*
G01*
X90380000Y-142000000D02*
G75*
G02*
X95620000Y-142000000I2620000J0D01*
G01*
X95600000Y-141717000D02*
X95600000Y-142283000D01*
X95560000Y-141483000D02*
X95560000Y-142517000D01*
X95520000Y-141323000D02*
X95520000Y-142677000D01*
X95480000Y-141195000D02*
X95480000Y-142805000D01*
X95440000Y-141086000D02*
X95440000Y-142914000D01*
X95400000Y-140989000D02*
X95400000Y-143011000D01*
X95360000Y-140902000D02*
X95360000Y-143098000D01*
X95320000Y-140823000D02*
X95320000Y-143177000D01*
X95280000Y-140749000D02*
X95280000Y-143251000D01*
X95240000Y-140681000D02*
X95240000Y-143319000D01*
X95200000Y-140617000D02*
X95200000Y-143383000D01*
X95160000Y-140557000D02*
X95160000Y-143443000D01*
X95120000Y-140501000D02*
X95120000Y-143499000D01*
X95080000Y-140447000D02*
X95080000Y-143553000D01*
X95040000Y-140396000D02*
X95040000Y-143604000D01*
X95000000Y-143040000D02*
X95000000Y-143652000D01*
X95000000Y-140348000D02*
X95000000Y-140960000D01*
X94960000Y-143040000D02*
X94960000Y-143699000D01*
X94960000Y-140301000D02*
X94960000Y-140960000D01*
X94920000Y-143040000D02*
X94920000Y-143743000D01*
X94920000Y-140257000D02*
X94920000Y-140960000D01*
X94880000Y-143040000D02*
X94880000Y-143785000D01*
X94880000Y-140215000D02*
X94880000Y-140960000D01*
X94840000Y-143040000D02*
X94840000Y-143825000D01*
X94840000Y-140175000D02*
X94840000Y-140960000D01*
X94800000Y-143040000D02*
X94800000Y-143864000D01*
X94800000Y-140136000D02*
X94800000Y-140960000D01*
X94760000Y-143040000D02*
X94760000Y-143901000D01*
X94760000Y-140099000D02*
X94760000Y-140960000D01*
X94720000Y-143040000D02*
X94720000Y-143936000D01*
X94720000Y-140064000D02*
X94720000Y-140960000D01*
X94680000Y-143040000D02*
X94680000Y-143970000D01*
X94680000Y-140030000D02*
X94680000Y-140960000D01*
X94640000Y-143040000D02*
X94640000Y-144003000D01*
X94640000Y-139997000D02*
X94640000Y-140960000D01*
X94600000Y-143040000D02*
X94600000Y-144035000D01*
X94600000Y-139965000D02*
X94600000Y-140960000D01*
X94560000Y-143040000D02*
X94560000Y-144065000D01*
X94560000Y-139935000D02*
X94560000Y-140960000D01*
X94520000Y-143040000D02*
X94520000Y-144094000D01*
X94520000Y-139906000D02*
X94520000Y-140960000D01*
X94480000Y-143040000D02*
X94480000Y-144122000D01*
X94480000Y-139878000D02*
X94480000Y-140960000D01*
X94440000Y-143040000D02*
X94440000Y-144149000D01*
X94440000Y-139851000D02*
X94440000Y-140960000D01*
X94400000Y-143040000D02*
X94400000Y-144175000D01*
X94400000Y-139825000D02*
X94400000Y-140960000D01*
X94360000Y-143040000D02*
X94360000Y-144199000D01*
X94360000Y-139801000D02*
X94360000Y-140960000D01*
X94320000Y-143040000D02*
X94320000Y-144223000D01*
X94320000Y-139777000D02*
X94320000Y-140960000D01*
X94280000Y-143040000D02*
X94280000Y-144246000D01*
X94280000Y-139754000D02*
X94280000Y-140960000D01*
X94240000Y-143040000D02*
X94240000Y-144268000D01*
X94240000Y-139732000D02*
X94240000Y-140960000D01*
X94200000Y-143040000D02*
X94200000Y-144289000D01*
X94200000Y-139711000D02*
X94200000Y-140960000D01*
X94160000Y-143040000D02*
X94160000Y-144309000D01*
X94160000Y-139691000D02*
X94160000Y-140960000D01*
X94120000Y-143040000D02*
X94120000Y-144329000D01*
X94120000Y-139671000D02*
X94120000Y-140960000D01*
X94080000Y-143040000D02*
X94080000Y-144347000D01*
X94080000Y-139653000D02*
X94080000Y-140960000D01*
X94040000Y-143040000D02*
X94040000Y-144365000D01*
X94040000Y-139635000D02*
X94040000Y-140960000D01*
X94000000Y-143040000D02*
X94000000Y-144382000D01*
X94000000Y-139618000D02*
X94000000Y-140960000D01*
X93960000Y-143040000D02*
X93960000Y-144398000D01*
X93960000Y-139602000D02*
X93960000Y-140960000D01*
X93920000Y-143040000D02*
X93920000Y-144413000D01*
X93920000Y-139587000D02*
X93920000Y-140960000D01*
X93880000Y-143040000D02*
X93880000Y-144428000D01*
X93880000Y-139572000D02*
X93880000Y-140960000D01*
X93840000Y-143040000D02*
X93840000Y-144442000D01*
X93840000Y-139558000D02*
X93840000Y-140960000D01*
X93800000Y-143040000D02*
X93800000Y-144455000D01*
X93800000Y-139545000D02*
X93800000Y-140960000D01*
X93760000Y-143040000D02*
X93760000Y-144467000D01*
X93760000Y-139533000D02*
X93760000Y-140960000D01*
X93720000Y-143040000D02*
X93720000Y-144479000D01*
X93720000Y-139521000D02*
X93720000Y-140960000D01*
X93680000Y-143040000D02*
X93680000Y-144490000D01*
X93680000Y-139510000D02*
X93680000Y-140960000D01*
X93640000Y-143040000D02*
X93640000Y-144501000D01*
X93640000Y-139499000D02*
X93640000Y-140960000D01*
X93600000Y-143040000D02*
X93600000Y-144510000D01*
X93600000Y-139490000D02*
X93600000Y-140960000D01*
X93560000Y-143040000D02*
X93560000Y-144519000D01*
X93560000Y-139481000D02*
X93560000Y-140960000D01*
X93520000Y-143040000D02*
X93520000Y-144528000D01*
X93520000Y-139472000D02*
X93520000Y-140960000D01*
X93480000Y-143040000D02*
X93480000Y-144536000D01*
X93480000Y-139464000D02*
X93480000Y-140960000D01*
X93440000Y-143040000D02*
X93440000Y-144543000D01*
X93440000Y-139457000D02*
X93440000Y-140960000D01*
X93400000Y-143040000D02*
X93400000Y-144549000D01*
X93400000Y-139451000D02*
X93400000Y-140960000D01*
X93360000Y-143040000D02*
X93360000Y-144555000D01*
X93360000Y-139445000D02*
X93360000Y-140960000D01*
X93320000Y-143040000D02*
X93320000Y-144560000D01*
X93320000Y-139440000D02*
X93320000Y-140960000D01*
X93280000Y-143040000D02*
X93280000Y-144565000D01*
X93280000Y-139435000D02*
X93280000Y-140960000D01*
X93240000Y-143040000D02*
X93240000Y-144569000D01*
X93240000Y-139431000D02*
X93240000Y-140960000D01*
X93200000Y-143040000D02*
X93200000Y-144572000D01*
X93200000Y-139428000D02*
X93200000Y-140960000D01*
X93160000Y-143040000D02*
X93160000Y-144575000D01*
X93160000Y-139425000D02*
X93160000Y-140960000D01*
X93120000Y-143040000D02*
X93120000Y-144577000D01*
X93120000Y-139423000D02*
X93120000Y-140960000D01*
X93080000Y-143040000D02*
X93080000Y-144579000D01*
X93080000Y-139421000D02*
X93080000Y-140960000D01*
X93040000Y-143040000D02*
X93040000Y-144580000D01*
X93040000Y-139420000D02*
X93040000Y-140960000D01*
X93000000Y-143040000D02*
X93000000Y-144580000D01*
X93000000Y-139420000D02*
X93000000Y-140960000D01*
X90445225Y-140275000D02*
X90445225Y-140775000D01*
X90195225Y-140525000D02*
X90695225Y-140525000D01*
%TO.C,C1*%
X87620000Y-134000000D02*
G75*
G02*
X82380000Y-134000000I-2620000J0D01*
G01*
X82380000Y-134000000D02*
G75*
G02*
X87620000Y-134000000I2620000J0D01*
G01*
X87600000Y-133717000D02*
X87600000Y-134283000D01*
X87560000Y-133483000D02*
X87560000Y-134517000D01*
X87520000Y-133323000D02*
X87520000Y-134677000D01*
X87480000Y-133195000D02*
X87480000Y-134805000D01*
X87440000Y-133086000D02*
X87440000Y-134914000D01*
X87400000Y-132989000D02*
X87400000Y-135011000D01*
X87360000Y-132902000D02*
X87360000Y-135098000D01*
X87320000Y-132823000D02*
X87320000Y-135177000D01*
X87280000Y-132749000D02*
X87280000Y-135251000D01*
X87240000Y-132681000D02*
X87240000Y-135319000D01*
X87200000Y-132617000D02*
X87200000Y-135383000D01*
X87160000Y-132557000D02*
X87160000Y-135443000D01*
X87120000Y-132501000D02*
X87120000Y-135499000D01*
X87080000Y-132447000D02*
X87080000Y-135553000D01*
X87040000Y-132396000D02*
X87040000Y-135604000D01*
X87000000Y-135040000D02*
X87000000Y-135652000D01*
X87000000Y-132348000D02*
X87000000Y-132960000D01*
X86960000Y-135040000D02*
X86960000Y-135699000D01*
X86960000Y-132301000D02*
X86960000Y-132960000D01*
X86920000Y-135040000D02*
X86920000Y-135743000D01*
X86920000Y-132257000D02*
X86920000Y-132960000D01*
X86880000Y-135040000D02*
X86880000Y-135785000D01*
X86880000Y-132215000D02*
X86880000Y-132960000D01*
X86840000Y-135040000D02*
X86840000Y-135825000D01*
X86840000Y-132175000D02*
X86840000Y-132960000D01*
X86800000Y-135040000D02*
X86800000Y-135864000D01*
X86800000Y-132136000D02*
X86800000Y-132960000D01*
X86760000Y-135040000D02*
X86760000Y-135901000D01*
X86760000Y-132099000D02*
X86760000Y-132960000D01*
X86720000Y-135040000D02*
X86720000Y-135936000D01*
X86720000Y-132064000D02*
X86720000Y-132960000D01*
X86680000Y-135040000D02*
X86680000Y-135970000D01*
X86680000Y-132030000D02*
X86680000Y-132960000D01*
X86640000Y-135040000D02*
X86640000Y-136003000D01*
X86640000Y-131997000D02*
X86640000Y-132960000D01*
X86600000Y-135040000D02*
X86600000Y-136035000D01*
X86600000Y-131965000D02*
X86600000Y-132960000D01*
X86560000Y-135040000D02*
X86560000Y-136065000D01*
X86560000Y-131935000D02*
X86560000Y-132960000D01*
X86520000Y-135040000D02*
X86520000Y-136094000D01*
X86520000Y-131906000D02*
X86520000Y-132960000D01*
X86480000Y-135040000D02*
X86480000Y-136122000D01*
X86480000Y-131878000D02*
X86480000Y-132960000D01*
X86440000Y-135040000D02*
X86440000Y-136149000D01*
X86440000Y-131851000D02*
X86440000Y-132960000D01*
X86400000Y-135040000D02*
X86400000Y-136175000D01*
X86400000Y-131825000D02*
X86400000Y-132960000D01*
X86360000Y-135040000D02*
X86360000Y-136199000D01*
X86360000Y-131801000D02*
X86360000Y-132960000D01*
X86320000Y-135040000D02*
X86320000Y-136223000D01*
X86320000Y-131777000D02*
X86320000Y-132960000D01*
X86280000Y-135040000D02*
X86280000Y-136246000D01*
X86280000Y-131754000D02*
X86280000Y-132960000D01*
X86240000Y-135040000D02*
X86240000Y-136268000D01*
X86240000Y-131732000D02*
X86240000Y-132960000D01*
X86200000Y-135040000D02*
X86200000Y-136289000D01*
X86200000Y-131711000D02*
X86200000Y-132960000D01*
X86160000Y-135040000D02*
X86160000Y-136309000D01*
X86160000Y-131691000D02*
X86160000Y-132960000D01*
X86120000Y-135040000D02*
X86120000Y-136329000D01*
X86120000Y-131671000D02*
X86120000Y-132960000D01*
X86080000Y-135040000D02*
X86080000Y-136347000D01*
X86080000Y-131653000D02*
X86080000Y-132960000D01*
X86040000Y-135040000D02*
X86040000Y-136365000D01*
X86040000Y-131635000D02*
X86040000Y-132960000D01*
X86000000Y-135040000D02*
X86000000Y-136382000D01*
X86000000Y-131618000D02*
X86000000Y-132960000D01*
X85960000Y-135040000D02*
X85960000Y-136398000D01*
X85960000Y-131602000D02*
X85960000Y-132960000D01*
X85920000Y-135040000D02*
X85920000Y-136413000D01*
X85920000Y-131587000D02*
X85920000Y-132960000D01*
X85880000Y-135040000D02*
X85880000Y-136428000D01*
X85880000Y-131572000D02*
X85880000Y-132960000D01*
X85840000Y-135040000D02*
X85840000Y-136442000D01*
X85840000Y-131558000D02*
X85840000Y-132960000D01*
X85800000Y-135040000D02*
X85800000Y-136455000D01*
X85800000Y-131545000D02*
X85800000Y-132960000D01*
X85760000Y-135040000D02*
X85760000Y-136467000D01*
X85760000Y-131533000D02*
X85760000Y-132960000D01*
X85720000Y-135040000D02*
X85720000Y-136479000D01*
X85720000Y-131521000D02*
X85720000Y-132960000D01*
X85680000Y-135040000D02*
X85680000Y-136490000D01*
X85680000Y-131510000D02*
X85680000Y-132960000D01*
X85640000Y-135040000D02*
X85640000Y-136501000D01*
X85640000Y-131499000D02*
X85640000Y-132960000D01*
X85600000Y-135040000D02*
X85600000Y-136510000D01*
X85600000Y-131490000D02*
X85600000Y-132960000D01*
X85560000Y-135040000D02*
X85560000Y-136519000D01*
X85560000Y-131481000D02*
X85560000Y-132960000D01*
X85520000Y-135040000D02*
X85520000Y-136528000D01*
X85520000Y-131472000D02*
X85520000Y-132960000D01*
X85480000Y-135040000D02*
X85480000Y-136536000D01*
X85480000Y-131464000D02*
X85480000Y-132960000D01*
X85440000Y-135040000D02*
X85440000Y-136543000D01*
X85440000Y-131457000D02*
X85440000Y-132960000D01*
X85400000Y-135040000D02*
X85400000Y-136549000D01*
X85400000Y-131451000D02*
X85400000Y-132960000D01*
X85360000Y-135040000D02*
X85360000Y-136555000D01*
X85360000Y-131445000D02*
X85360000Y-132960000D01*
X85320000Y-135040000D02*
X85320000Y-136560000D01*
X85320000Y-131440000D02*
X85320000Y-132960000D01*
X85280000Y-135040000D02*
X85280000Y-136565000D01*
X85280000Y-131435000D02*
X85280000Y-132960000D01*
X85240000Y-135040000D02*
X85240000Y-136569000D01*
X85240000Y-131431000D02*
X85240000Y-132960000D01*
X85200000Y-135040000D02*
X85200000Y-136572000D01*
X85200000Y-131428000D02*
X85200000Y-132960000D01*
X85160000Y-135040000D02*
X85160000Y-136575000D01*
X85160000Y-131425000D02*
X85160000Y-132960000D01*
X85120000Y-135040000D02*
X85120000Y-136577000D01*
X85120000Y-131423000D02*
X85120000Y-132960000D01*
X85080000Y-135040000D02*
X85080000Y-136579000D01*
X85080000Y-131421000D02*
X85080000Y-132960000D01*
X85040000Y-135040000D02*
X85040000Y-136580000D01*
X85040000Y-131420000D02*
X85040000Y-132960000D01*
X85000000Y-135040000D02*
X85000000Y-136580000D01*
X85000000Y-131420000D02*
X85000000Y-132960000D01*
X82445225Y-132275000D02*
X82445225Y-132775000D01*
X82195225Y-132525000D02*
X82695225Y-132525000D01*
%TD*%
M02*
