%TF.GenerationSoftware,KiCad,Pcbnew,9.0.1*%
%TF.CreationDate,2025-04-22T18:06:14+02:00*%
%TF.ProjectId,electro-maticv,656c6563-7472-46f2-9d6d-61746963762e,rev?*%
%TF.SameCoordinates,Original*%
%TF.FileFunction,Copper,L2,Bot*%
%TF.FilePolarity,Positive*%
%FSLAX46Y46*%
G04 Gerber Fmt 4.6, Leading zero omitted, Abs format (unit mm)*
G04 Created by KiCad (PCBNEW 9.0.1) date 2025-04-22 18:06:14*
%MOMM*%
%LPD*%
G01*
G04 APERTURE LIST*
G04 Aperture macros list*
%AMRoundRect*
0 Rectangle with rounded corners*
0 $1 Rounding radius*
0 $2 $3 $4 $5 $6 $7 $8 $9 X,Y pos of 4 corners*
0 Add a 4 corners polygon primitive as box body*
4,1,4,$2,$3,$4,$5,$6,$7,$8,$9,$2,$3,0*
0 Add four circle primitives for the rounded corners*
1,1,$1+$1,$2,$3*
1,1,$1+$1,$4,$5*
1,1,$1+$1,$6,$7*
1,1,$1+$1,$8,$9*
0 Add four rect primitives between the rounded corners*
20,1,$1+$1,$2,$3,$4,$5,0*
20,1,$1+$1,$4,$5,$6,$7,0*
20,1,$1+$1,$6,$7,$8,$9,0*
20,1,$1+$1,$8,$9,$2,$3,0*%
G04 Aperture macros list end*
%TA.AperFunction,ComponentPad*%
%ADD10O,2.200000X2.200000*%
%TD*%
%TA.AperFunction,ComponentPad*%
%ADD11R,2.200000X2.200000*%
%TD*%
%TA.AperFunction,ComponentPad*%
%ADD12C,1.600000*%
%TD*%
%TA.AperFunction,ComponentPad*%
%ADD13R,1.600000X1.600000*%
%TD*%
%TA.AperFunction,ComponentPad*%
%ADD14O,1.600000X1.600000*%
%TD*%
%TA.AperFunction,ComponentPad*%
%ADD15R,1.700000X1.700000*%
%TD*%
%TA.AperFunction,ComponentPad*%
%ADD16C,1.700000*%
%TD*%
%TA.AperFunction,ComponentPad*%
%ADD17RoundRect,0.250000X-0.550000X0.550000X-0.550000X-0.550000X0.550000X-0.550000X0.550000X0.550000X0*%
%TD*%
%TA.AperFunction,ComponentPad*%
%ADD18C,1.400000*%
%TD*%
%TA.AperFunction,ComponentPad*%
%ADD19RoundRect,0.250000X-0.450000X0.450000X-0.450000X-0.450000X0.450000X-0.450000X0.450000X0.450000X0*%
%TD*%
%TA.AperFunction,Conductor*%
%ADD20C,0.250000*%
%TD*%
G04 APERTURE END LIST*
D10*
%TO.P,D1,2,A*%
%TO.N,+1V0*%
X95380000Y-121000000D03*
D11*
%TO.P,D1,1,K*%
%TO.N,A*%
X103000000Y-121000000D03*
%TD*%
D12*
%TO.P,C8,2*%
%TO.N,Earth*%
X110000000Y-141500000D03*
D13*
%TO.P,C8,1*%
%TO.N,B*%
X107500000Y-141500000D03*
%TD*%
D12*
%TO.P,C7,2*%
%TO.N,Earth*%
X109500000Y-130544888D03*
D13*
%TO.P,C7,1*%
%TO.N,A*%
X109500000Y-128544888D03*
%TD*%
D14*
%TO.P,R7,2*%
%TO.N,B*%
X100580000Y-128500000D03*
D12*
%TO.P,R7,1*%
%TO.N,A*%
X103120000Y-128500000D03*
%TD*%
D14*
%TO.P,R8,2*%
%TO.N,Earth*%
X104920000Y-135500000D03*
D12*
%TO.P,R8,1*%
%TO.N,B*%
X102380000Y-135500000D03*
%TD*%
D15*
%TO.P,J4,1,In*%
%TO.N,Net-(J4-In)*%
X100000000Y-141960000D03*
D16*
%TO.P,J4,2,Ext*%
%TO.N,Earth*%
X100000000Y-144500000D03*
%TD*%
D12*
%TO.P,C3,1*%
%TO.N,Net-(U1D--)*%
X76000000Y-147000000D03*
%TO.P,C3,2*%
%TO.N,Net-(C3-Pad2)*%
X78500000Y-147000000D03*
%TD*%
%TO.P,C2,1*%
%TO.N,Net-(U1C--)*%
X71000000Y-142000000D03*
%TO.P,C2,2*%
%TO.N,Net-(C2-Pad2)*%
X68500000Y-142000000D03*
%TD*%
D14*
%TO.P,R4,2*%
%TO.N,Net-(U1D--)*%
X76000000Y-142000000D03*
D12*
%TO.P,R4,1*%
%TO.N,Net-(C3-Pad2)*%
X78540000Y-142000000D03*
%TD*%
D14*
%TO.P,R3,2*%
%TO.N,Net-(C2-Pad2)*%
X68460000Y-147000000D03*
D12*
%TO.P,R3,1*%
%TO.N,Net-(U1D--)*%
X71000000Y-147000000D03*
%TD*%
%TO.P,R15,1*%
%TO.N,Net-(C11-Pad1)*%
X68190000Y-113500000D03*
D14*
%TO.P,R15,2*%
%TO.N,Net-(U1B--)*%
X70730000Y-113500000D03*
%TD*%
D12*
%TO.P,R14,1*%
%TO.N,Net-(C2-Pad2)*%
X61000000Y-124040000D03*
D14*
%TO.P,R14,2*%
%TO.N,Net-(U1B--)*%
X61000000Y-121500000D03*
%TD*%
D12*
%TO.P,R13,1*%
%TO.N,Net-(U1D--)*%
X63000000Y-147000000D03*
D14*
%TO.P,R13,2*%
%TO.N,Net-(C9-Pad1)*%
X60460000Y-147000000D03*
%TD*%
D12*
%TO.P,R12,1*%
%TO.N,Net-(U1B--)*%
X75460000Y-102000000D03*
D14*
%TO.P,R12,2*%
%TO.N,Net-(C10-Pad1)*%
X78000000Y-102000000D03*
%TD*%
D12*
%TO.P,R9,1*%
%TO.N,Net-(R10-Pad1)*%
X90040000Y-119500000D03*
D14*
%TO.P,R9,2*%
%TO.N,Net-(U1A--)*%
X87500000Y-119500000D03*
%TD*%
D12*
%TO.P,R6,1*%
%TO.N,Net-(U1A-+)*%
X77540000Y-114000000D03*
D14*
%TO.P,R6,2*%
%TO.N,B*%
X75000000Y-114000000D03*
%TD*%
D12*
%TO.P,R5,1*%
%TO.N,Net-(C4-Pad1)*%
X86040000Y-142000000D03*
D14*
%TO.P,R5,2*%
%TO.N,Net-(C3-Pad2)*%
X83500000Y-142000000D03*
%TD*%
D12*
%TO.P,R2,1*%
%TO.N,Net-(C2-Pad2)*%
X68460000Y-134000000D03*
D14*
%TO.P,R2,2*%
%TO.N,Net-(U1C--)*%
X71000000Y-134000000D03*
%TD*%
D12*
%TO.P,R1,1*%
%TO.N,Net-(C1-Pad1)*%
X78500000Y-134000000D03*
D14*
%TO.P,R1,2*%
%TO.N,Net-(U1C--)*%
X75960000Y-134000000D03*
%TD*%
D15*
%TO.P,R16,1,1*%
%TO.N,Net-(C12-Pad2)*%
X59540000Y-97500000D03*
D16*
%TO.P,R16,2,2*%
%TO.N,Net-(R16-Pad2)*%
X57000000Y-97500000D03*
%TO.P,R16,3,3*%
%TO.N,Earth*%
X54460000Y-97500000D03*
%TD*%
D12*
%TO.P,U1,14*%
%TO.N,Net-(C3-Pad2)*%
X83540000Y-127500000D03*
%TO.P,U1,13,-*%
%TO.N,Net-(U1D--)*%
X81000000Y-127500000D03*
%TO.P,U1,12,+*%
%TO.N,B*%
X78460000Y-127500000D03*
%TO.P,U1,11,V-*%
%TO.N,Earth*%
X75920000Y-127500000D03*
%TO.P,U1,10,+*%
%TO.N,B*%
X73380000Y-127500000D03*
%TO.P,U1,9,-*%
%TO.N,Net-(U1C--)*%
X70840000Y-127500000D03*
%TO.P,U1,8*%
%TO.N,Net-(C2-Pad2)*%
X68300000Y-127500000D03*
%TO.P,U1,7*%
%TO.N,Net-(C11-Pad1)*%
X68300000Y-119880000D03*
%TO.P,U1,6,-*%
%TO.N,Net-(U1B--)*%
X70840000Y-119880000D03*
%TO.P,U1,5,+*%
%TO.N,B*%
X73380000Y-119880000D03*
%TO.P,U1,4,V+*%
%TO.N,A*%
X75920000Y-119880000D03*
%TO.P,U1,3,+*%
%TO.N,Net-(U1A-+)*%
X78460000Y-119880000D03*
%TO.P,U1,2,-*%
%TO.N,Net-(U1A--)*%
X81000000Y-119880000D03*
D17*
%TO.P,U1,1*%
X83540000Y-119880000D03*
%TD*%
D18*
%TO.P,SW1,6,C*%
%TO.N,Net-(R16-Pad2)*%
X58200000Y-106000000D03*
%TO.P,SW1,5,B*%
%TO.N,Net-(J2-In)*%
X58200000Y-108500000D03*
%TO.P,SW1,4,A*%
%TO.N,Net-(SW1-A-Pad4)*%
X58200000Y-111000000D03*
%TO.P,SW1,3,C*%
X61500000Y-111000000D03*
%TO.P,SW1,2,B*%
%TO.N,Net-(J3-In)*%
X61500000Y-108500000D03*
D19*
%TO.P,SW1,1,A*%
%TO.N,Net-(C1-Pad2)*%
X61500000Y-106000000D03*
%TD*%
D16*
%TO.P,R11,3,3*%
%TO.N,Net-(U1A--)*%
X95920000Y-102000000D03*
%TO.P,R11,2,2*%
%TO.N,Net-(C10-Pad2)*%
X98460000Y-102000000D03*
D15*
%TO.P,R11,1,1*%
%TO.N,Earth*%
X101000000Y-102000000D03*
%TD*%
D16*
%TO.P,R10,3,3*%
%TO.N,Earth*%
X53500000Y-135080000D03*
%TO.P,R10,2,2*%
%TO.N,Net-(C9-Pad2)*%
X53500000Y-132540000D03*
D15*
%TO.P,R10,1,1*%
%TO.N,Net-(R10-Pad1)*%
X53500000Y-130000000D03*
%TD*%
D16*
%TO.P,J3,2,Ext*%
%TO.N,Earth*%
X53960000Y-118500000D03*
D15*
%TO.P,J3,1,In*%
%TO.N,Net-(J3-In)*%
X56500000Y-118500000D03*
%TD*%
D16*
%TO.P,J2,2,Ext*%
%TO.N,Earth*%
X53500000Y-111040000D03*
D15*
%TO.P,J2,1,In*%
%TO.N,Net-(J2-In)*%
X53500000Y-108500000D03*
%TD*%
D16*
%TO.P,J1,2,Ext*%
%TO.N,Earth*%
X101040000Y-109500000D03*
D15*
%TO.P,J1,1,In*%
%TO.N,Net-(J1-In)*%
X98500000Y-109500000D03*
%TD*%
D12*
%TO.P,C12,2*%
%TO.N,Net-(C12-Pad2)*%
X66540000Y-97500000D03*
D13*
%TO.P,C12,1*%
%TO.N,Net-(C11-Pad1)*%
X68540000Y-97500000D03*
%TD*%
D12*
%TO.P,C11,2*%
%TO.N,Net-(U1B--)*%
X71000000Y-106000000D03*
%TO.P,C11,1*%
%TO.N,Net-(C11-Pad1)*%
X68500000Y-106000000D03*
%TD*%
%TO.P,C10,2*%
%TO.N,Net-(C10-Pad2)*%
X85500000Y-102000000D03*
D13*
%TO.P,C10,1*%
%TO.N,Net-(C10-Pad1)*%
X83500000Y-102000000D03*
%TD*%
D12*
%TO.P,C9,2*%
%TO.N,Net-(C9-Pad2)*%
X60500000Y-140500000D03*
D13*
%TO.P,C9,1*%
%TO.N,Net-(C9-Pad1)*%
X60500000Y-142500000D03*
%TD*%
D12*
%TO.P,C6,2*%
%TO.N,B*%
X75250000Y-109000000D03*
%TO.P,C6,1*%
%TO.N,Net-(U1A-+)*%
X77750000Y-109000000D03*
%TD*%
%TO.P,C5,2*%
%TO.N,Net-(J1-In)*%
X85500000Y-109000000D03*
D13*
%TO.P,C5,1*%
%TO.N,Net-(U1A-+)*%
X83500000Y-109000000D03*
%TD*%
D12*
%TO.P,C4,2*%
%TO.N,Net-(J4-In)*%
X94000000Y-142000000D03*
D13*
%TO.P,C4,1*%
%TO.N,Net-(C4-Pad1)*%
X92000000Y-142000000D03*
%TD*%
D12*
%TO.P,C1,2*%
%TO.N,Net-(C1-Pad2)*%
X86000000Y-134000000D03*
D13*
%TO.P,C1,1*%
%TO.N,Net-(C1-Pad1)*%
X84000000Y-134000000D03*
%TD*%
D20*
%TO.N,Net-(U1C--)*%
X71000000Y-127660000D02*
X70840000Y-127500000D01*
X71000000Y-134000000D02*
X71000000Y-127660000D01*
%TO.N,Net-(C2-Pad2)*%
X68460000Y-127660000D02*
X68300000Y-127500000D01*
X68460000Y-134000000D02*
X68460000Y-127660000D01*
%TO.N,Earth*%
X54460000Y-93580000D02*
X54460000Y-97500000D01*
X48000000Y-93540000D02*
X48040000Y-93500000D01*
X48000000Y-111000000D02*
X48000000Y-93540000D01*
X54540000Y-93500000D02*
X54460000Y-93580000D01*
X48040000Y-111040000D02*
X48000000Y-111000000D01*
X48040000Y-93500000D02*
X54540000Y-93500000D01*
%TO.N,Net-(C11-Pad1)*%
X68300000Y-113610000D02*
X68190000Y-113500000D01*
X68300000Y-119880000D02*
X68300000Y-113610000D01*
%TO.N,Net-(J1-In)*%
X98000000Y-109000000D02*
X98500000Y-109500000D01*
X85500000Y-109000000D02*
X98000000Y-109000000D01*
%TO.N,A*%
X81300000Y-114500000D02*
X75920000Y-119880000D01*
X100000000Y-114500000D02*
X81300000Y-114500000D01*
X103000000Y-117500000D02*
X100000000Y-114500000D01*
X103000000Y-121000000D02*
X103000000Y-117500000D01*
%TO.N,Net-(U1D--)*%
X76000000Y-140500000D02*
X76000000Y-142000000D01*
X80500000Y-138500000D02*
X78000000Y-138500000D01*
X81000000Y-138000000D02*
X80500000Y-138500000D01*
X81000000Y-127500000D02*
X81000000Y-138000000D01*
X78000000Y-138500000D02*
X76000000Y-140500000D01*
%TO.N,Net-(C3-Pad2)*%
X90000000Y-132000000D02*
X85500000Y-127500000D01*
X86000000Y-137500000D02*
X90000000Y-137500000D01*
X83500000Y-140000000D02*
X86000000Y-137500000D01*
X90000000Y-137500000D02*
X90000000Y-132000000D01*
X83500000Y-142000000D02*
X83500000Y-140000000D01*
X85500000Y-127500000D02*
X83540000Y-127500000D01*
%TO.N,Net-(R10-Pad1)*%
X64500000Y-129500000D02*
X64000000Y-130000000D01*
X64500000Y-124500000D02*
X64500000Y-129500000D01*
X90000000Y-124500000D02*
X64500000Y-124500000D01*
X64000000Y-130000000D02*
X53500000Y-130000000D01*
X90040000Y-124460000D02*
X90000000Y-124500000D01*
X90040000Y-119500000D02*
X90040000Y-124460000D01*
%TO.N,Earth*%
X101000000Y-102000000D02*
X117000000Y-102000000D01*
X117000000Y-109500000D02*
X117000000Y-102000000D01*
X101040000Y-109500000D02*
X117000000Y-109500000D01*
X117000000Y-130000000D02*
X117000000Y-109500000D01*
X116500000Y-130500000D02*
X117000000Y-130000000D01*
X116455112Y-130544888D02*
X109500000Y-130544888D01*
X116500000Y-130500000D02*
X116455112Y-130544888D01*
X116500000Y-141500000D02*
X116500000Y-130500000D01*
X116500000Y-153000000D02*
X116500000Y-141500000D01*
X116500000Y-141500000D02*
X110000000Y-141500000D01*
X100000000Y-153000000D02*
X116500000Y-153000000D01*
X100000000Y-153000000D02*
X100000000Y-144500000D01*
X74000000Y-153000000D02*
X100000000Y-153000000D01*
X75920000Y-129920000D02*
X75920000Y-127500000D01*
X74000000Y-153000000D02*
X74000000Y-130000000D01*
X48000000Y-153000000D02*
X74000000Y-153000000D01*
X48080000Y-152920000D02*
X48000000Y-153000000D01*
X74000000Y-130000000D02*
X76000000Y-130000000D01*
X48080000Y-135080000D02*
X48080000Y-152920000D01*
X76000000Y-130000000D02*
X75920000Y-129920000D01*
X48000000Y-135000000D02*
X48080000Y-135080000D01*
X48000000Y-118500000D02*
X48000000Y-135000000D01*
X48080000Y-135080000D02*
X53500000Y-135080000D01*
X48000000Y-118500000D02*
X53960000Y-118500000D01*
X48040000Y-118460000D02*
X48000000Y-118500000D01*
X48040000Y-111040000D02*
X48040000Y-118460000D01*
X53500000Y-111040000D02*
X48040000Y-111040000D01*
%TD*%
M02*
